<svg xmlns="http://www.w3.org/2000/svg" viewBox="0 0 555.77 277.41"><defs><style>.cls-1{fill:#fff;stroke:#231f20;stroke-miterlimit:10;}.cls-2{fill:#2b065b;}.cls-3{fill:#300956;}.cls-4{fill:#19d3c5;}.cls-5{fill:#8ce9e2;}</style></defs><title>LogoSafe_1</title><g id="Layer_2" data-name="Layer 2"><g id="Layer_1-2" data-name="Layer 1"><polygon class="cls-1" points="555.27 276.91 0.5 276.91 0.5 77 234.03 77 283.18 0.92 332.34 77 555.27 77 555.27 276.91"/><path class="cls-2" d="M75.17,203.2V149.54h54.32v9.14H86.22V171H122v9.24H86.22V194h43.27v9.23Z"/><path class="cls-2" d="M143.38,203.2V149.54h11V194h40.1v9.23Z"/><polygon class="cls-3" points="316.65 183.1 337.91 183.1 327.39 166.48 316.65 183.1"/><path class="cls-2" d="M352.64,127.35,332.83,158l29.59,45.19H350.21l-6.83-10.77H310.6l-17.25,26.69-5,7.79h217V127.35Zm62.51,31.42H391V203.2H380.15V158.77h-24v-9.23h59Zm65-.09H436.92V171h35.77v9.24H436.92V194h43.27v9.24H425.86V149.54h54.33Z"/><polygon class="cls-4" points="283.19 179.6 254.67 135.47 234.03 135.47 283.19 211.54 332.34 135.47 311.7 135.47 283.19 179.6"/><polygon class="cls-5" points="283.18 78.49 311.7 122.63 332.34 122.63 283.18 46.55 234.03 122.63 254.66 122.63 283.18 78.49"/><polygon class="cls-5" points="283.18 117.51 294.78 135.47 303.18 135.47 283.18 104.51 263.18 135.47 271.58 135.47 283.18 117.51"/><polygon class="cls-2" points="256.77 193.97 216.4 193.97 216.4 180.22 247.89 180.22 241.92 170.98 216.4 170.98 216.4 158.68 233.97 158.68 228.06 149.54 205.34 149.54 205.34 203.2 262.74 203.2 256.77 193.97"/><polygon class="cls-4" points="275.45 222.88 55.41 222.88 55.41 131.39 216.33 131.39 213.73 127.36 51.38 127.36 51.38 226.91 278.06 226.91 275.45 222.88"/><rect class="cls-1" x="0.5" y="77" width="50" height="50"/><rect class="cls-1" x="0.5" y="226.91" width="50" height="50"/><rect class="cls-1" x="505.27" y="226.91" width="50" height="50"/><rect class="cls-1" x="505.27" y="77" width="50" height="50"/></g></g></svg>