<svg xmlns="http://www.w3.org/2000/svg" viewBox="0 0 256.13 412.83"><defs><style>.cls-1{fill:#231f20;}.cls-2{fill:#fff;}.cls-3{fill:#febd3d;}.cls-4{fill:#f9e346;}.cls-5{fill:#f47e3a;}</style></defs><title>Mummy</title><g id="Layer_2" data-name="Layer 2"><g id="Layer_1-2" data-name="Layer 1"><ellipse class="cls-1" cx="135.82" cy="403.81" rx="80.24" ry="9.02"/><path class="cls-1" d="M148,363.08a14.17,14.17,0,0,1,.55,1.46c1.74,6.83,3.56,13.65,5.18,20.51,1.23,5.24,2.19,10.54,3.26,15.82.3,1.43.18,1.63-1.23,1.68s-3-.09-4.48-.05c-1.74.05-2.52-1.36-3.12-2.46-.43-.77-1-1.46-1.4-2.23-1.48-2.84-3-5.67-4.57-8.44-1.27-2.23-2.7-4.35-4-6.56-1.46-2.5-2.84-5.06-4.28-7.57-.49-.84-1.1-1.62-1.61-2.44a6.7,6.7,0,0,1-.78-1.53,1.32,1.32,0,0,1,.62-1.73,12.72,12.72,0,0,1,1.37-.71c3.6-1.38,7.21-2.72,10.81-4.11C145.46,364.27,146.58,363.71,148,363.08Z"/><path class="cls-1" d="M74.34,387.69a6.11,6.11,0,0,1,3.36-2.55c1.69-.52,3.38-1.05,5-1.69,2.31-.9,4.63-.5,6.94-.16.79.12,1.56.4,2.35.55s4.71,3.36,5.4,3.92c1.61,1.28,3.35,2.39,4.94,3.7a74.2,74.2,0,0,1,8.18,7.26c.29.33.78.48,1.11.79a17,17,0,0,1,1.2,1.42c-1.84.9-3.51.28-5.13.28-3.09,0-6.19-.17-9.29-.31-2.05-.08-4.12-.17-6.16-.38a4.35,4.35,0,0,1-1.88-.77q-4.65-3.06-9.27-6.2c-.94-.64-1.85-1.34-2.75-2.05s-2-1.56-2.92-2.41A10.49,10.49,0,0,1,74.34,387.69Z"/><path class="cls-1" d="M119.83,383.44c3.08-1.68,6.16-.91,9.18-.53a14.32,14.32,0,0,1,3.32,1.26,5.67,5.67,0,0,0,1.08.48,4.21,4.21,0,0,1,3,2.38c2.23,3.93,4.39,7.9,6.59,11.85.39.7.85,1.36,1.27,2s.74,1.45-.08,2.23c-1.64-.08-3.41-.21-5.18-.23a5.44,5.44,0,0,1-3.71-2c-3.6-3.64-7.12-7.38-10.64-11.1-1.29-1.36-2.55-2.75-3.74-4.2A12.32,12.32,0,0,1,119.83,383.44Z"/><path class="cls-1" d="M100.68,384.41c3.86-2,9.77,0,12,.51a22,22,0,0,0,3,.67,1.32,1.32,0,0,1,.81.45,146.29,146.29,0,0,0,11.11,11.71c1.06,1,2,2.11,3,3.21.2.23.21.63.39,1.22-1.07,0-2,.12-2.91.11-1.82,0-3.64-.09-5.46-.13a4.53,4.53,0,0,1-3.58-1.55,64,64,0,0,0-5.08-5.07c-1.69-1.52-3.48-2.92-5.3-4.27-1.54-1.15-3.21-2.11-4.77-3.22a19.61,19.61,0,0,1-2.61-2.2A4.39,4.39,0,0,1,100.68,384.41Z"/><path class="cls-1" d="M149,353.09c-5-2.87-9.76-5.6-14.52-8.26a53,53,0,0,0-4.8-2.32,3.26,3.26,0,0,1-2.17-3.49,20.6,20.6,0,0,1,.88-5.41c.45-1.51,1.57-2.51,2.51-3.65a1.4,1.4,0,0,1,.94-.34c.8-.07,1.6,0,2.4-.08a2.21,2.21,0,0,1,2.27,1.43,32.93,32.93,0,0,0,3,4.43,59.49,59.49,0,0,1,5.92,9.67c1.14,2.12,2.11,4.34,3.14,6.52A14.17,14.17,0,0,1,149,353.09Z"/><path class="cls-1" d="M148.23,357.92c-1.76,1-3.47,2-5.22,2.9a15,15,0,0,1-1.77.66c-1.77.66-3.54,1.34-5.3,2-1,.38-2,.79-3.08,1.12s-1.42.22-1.85-.86a9.35,9.35,0,0,1-.65-2.65,25,25,0,0,1,.71-8.36,5.07,5.07,0,0,1,.68-1.56,8.29,8.29,0,0,1,1.69-1.89c.94-.69,1.58.3,2.26.7q6.11,3.67,12.17,7.41C148,357.48,148.06,357.68,148.23,357.92Z"/><path class="cls-1" d="M149.5,343.55c-2.75-4.32-7.76-10.92-10.55-15.32a30.17,30.17,0,0,1,3.85.23,51.9,51.9,0,0,0,10.13-.2,6.53,6.53,0,0,1,1,0C154,330.65,151.59,340.89,149.5,343.55Z"/><path class="cls-1" d="M83.59,400.17l-7.65-.52c-.34,0-.68-.11-1-.11a2,2,0,0,1-2.38-1.8,8.31,8.31,0,0,1,.55-5.57c1.87,1.38,3.61,2.78,5.46,4a31.11,31.11,0,0,1,5.25,3.68Z"/><path class="cls-1" d="M162.66,399.83l-1.83-.63c0-.05-1.79-6.39-1.82-6.56-.21-1.07-.45-2.13-.66-3.2-.89-2.54,1.72-1.57,1.93-1.6C163.62,391.32,164.25,395.32,162.66,399.83Z"/><path class="cls-1" d="M82.49,233.52c-.33-.08-.45-.16-.55-.13-2.51.59-3.91-1-5.15-2.73A17.15,17.15,0,0,1,74.16,224a28,28,0,0,1-.55-9.58c.22-1.53,0-3.13.23-4.65.35-2.14,1-4.24,1.47-6.35.08-.34.12-.68.21-1.19L71,200a5.15,5.15,0,0,0-2.64,2.27,1.94,1.94,0,0,1-2.11,1.2c-1.75-.23-3.5-.52-5.25-.8-4.53-.72-8.4-2.88-12.17-5.37a38.18,38.18,0,0,1-10.45-10.82,44.57,44.57,0,0,1-2.31-4.29c-.49.45-1,.82-1.37,1.26a3,3,0,0,1-4,.51,4.3,4.3,0,0,0-.6-.32c-3.79-1.61-6.49-4.45-8.81-7.75a85.71,85.71,0,0,1-7.49-12.51,46.3,46.3,0,0,1-2.29-7.19,2.75,2.75,0,0,1,.1-1.7,2,2,0,0,0-.09-1.75q-2.12-5.43-4.12-10.89a135.26,135.26,0,0,1-4.51-15c-1-4.13-1.61-8.32-2.19-12.52A86.86,86.86,0,0,1,.14,97.86c.2-4,.72-7.88,1.3-11.8A37.29,37.29,0,0,1,4.66,75.57c.41-.87.42-.87-.3-2.07L2.62,74.57A12.1,12.1,0,0,1,1.1,73.42,2.54,2.54,0,0,1,.26,71c.38-1.43.75-2.87,1.15-4.29q1-3.64,2.12-7.28a7.94,7.94,0,0,1,.76-1.91c2-3.24,4.11-6.46,6.18-9.69.12-.2.26-.38.36-.59,1.85-4,4.76-7.14,7.59-10.39A28.81,28.81,0,0,1,24,31.47c1.09-.73,2.27-1.34,3.37-2,.37-.23.86-.58.91-.93.27-2,1.53-3.28,2.79-4.62,1.46-1.54,2.9-3.1,4.33-4.66a19.59,19.59,0,0,1,5.68-4.13c1.47-.75,3-1.31,4.55-2,.87-.37,1.63-.86,1.73-1.93A4.26,4.26,0,0,1,48.79,8.7C52.84,4.48,58,2.45,63.52.93A28.56,28.56,0,0,1,77.27.75c1,.21,2,.33,3,.46a6.83,6.83,0,0,1,4.64,2.34,21.77,21.77,0,0,0,2,1.87,6.5,6.5,0,0,1,3.65-2.09A35,35,0,0,1,101,2c1,0,1.94.2,2.9.32a45.21,45.21,0,0,1,16.55,5.43c2.39,1.34,5,2.35,7.45,3.55a87,87,0,0,1,9.21,4.85,31.56,31.56,0,0,1,5,4.08c1,1,2.16,1.67,3.22,2.54a16.67,16.67,0,0,1,1.34,1.32,30.09,30.09,0,0,1,5.65,8,11.82,11.82,0,0,1,.84,3.32c.31,1.86.58,3.72.75,5.59a10.14,10.14,0,0,1-.09,3.21,2.18,2.18,0,0,0,.08,1.59c2.19,4.68,4.35,9.37,6.52,14,.94,2,1.89,4.06,2.8,6.1a1.63,1.63,0,0,0,1.65,1,43.12,43.12,0,0,1,19.34,5.5c4,2.25,8,4.55,11.28,7.82,2.92,2.91,5.65,6,8.45,9,2,2.1,3.92,4.18,5.82,6.33,1.32,1.49,2.55,3.07,3.8,4.63,3,3.39,7.89,3.09,14.34,12.65a22.92,22.92,0,0,1,2,3.58c1.42,3.25,3.32,6.31,4.17,9.8s1.68,7,2.46,10.56c.54,2.45,1.1,4.91,1.43,7.39a61.16,61.16,0,0,1,.26,11.48,3.14,3.14,0,0,0,.72,2.19,21.53,21.53,0,0,1,2.58,4.25,9.45,9.45,0,0,1,.7,4,13.79,13.79,0,0,0,.78,5.49,17.36,17.36,0,0,1,.28,9.69c-.15.72-.3,1.45-.46,2.25l2.1,1.16a7.24,7.24,0,0,1,4,6.69c0,1.31-.3,2.62-.42,3.93a17.53,17.53,0,0,0-.16,3.23c.09.89-.14,1.5-.92,1.78-1.72.63-3.46,1.18-5.2,1.72-1.53.47-3.07.89-5,1.45a30,30,0,0,0,3.19,3,42.5,42.5,0,0,1,6.33,6,4.8,4.8,0,0,0,1.74,1.32,5.86,5.86,0,0,1,2.78,2.46,20,20,0,0,1,2.58,6.14,27.23,27.23,0,0,1,1.19,11c-.49,3.74.11,7.39.7,11.06a7.05,7.05,0,0,1,.11,1c.07,2.52.21,5.05.18,7.58a28.51,28.51,0,0,1-2.39,11.87,25,25,0,0,1-1.69,2.7,26.57,26.57,0,0,0-2.15,5.08A56.19,56.19,0,0,1,248,280c-1.34,3.73-3.61,7-5.88,10.36-.72,1.16-1.9,4.51-2.25,5.18a89,89,0,0,1-7.39,11.95c-1.61,2.21-3.42,4.29-5.24,6.34a20.51,20.51,0,0,1-8,5.44c-1,.37-1.91.78-2.86,1.19s-1.77.81-2.72,0c-.43-.35-.92-.17-1.44.09a36.78,36.78,0,0,1-4.86,2.14c-3.17,1-6.37,2-9.61,2.68-3.74.84-7.54,1.42-11.31,2.07-1,.16-1.94.18-3.06.27-.37,1.47-.63,3-1.13,4.43a66.1,66.1,0,0,1-5.09,12.16c-.17.3-.34.6-.53.89a3.16,3.16,0,0,0-.12,3.4,44.78,44.78,0,0,1,2.08,5.44,17.57,17.57,0,0,1,.54,3.7c.08,1.07-.27,1.36-1.8,1.88a3.65,3.65,0,0,0-.15,2.81c.72,2.72,1.27,5.49,2.13,8.16a80.1,80.1,0,0,1,2.08,8.45,2.89,2.89,0,0,0,1.56,2.1c.76.4,1.52.79,2.27,1.2a15.64,15.64,0,0,1,4.76,4.34c2.07,2.62,2.37,5.73,2.84,8.76.25,1.63-.28,3.39-.5,5.08a8.65,8.65,0,0,1-.45,1.82c-.29.79-4.22,4.23-6.51,4.18-1.05.05-87.15-3.09-87.63-3.47a12.24,12.24,0,0,1-2.73-3.25,9.5,9.5,0,0,1-.79-7.49,25.86,25.86,0,0,1,.92-2.49c0-.08-.16-.28-.28-.47-1-1.57-.82-1.74.38-3,3.45-3.76,8-5.37,12.74-6.38a17.47,17.47,0,0,1,12,1.51,1.66,1.66,0,0,0,1.74.18,20.6,20.6,0,0,1,13.59-1.39c1.55.31,3.08.74,4.86,1.18l3.08-2a6.07,6.07,0,0,1,3.42-1c3,0,6-.07,8.88.83a1.2,1.2,0,0,0,.5,0c.21,0,.42-.06.83-.12-.64-1.24-1.17-2.37-1.8-3.43a24.65,24.65,0,0,1-3.34-7.3c-.28-1.31-.87-2.64.2-3.92.18-.22.06-.76,0-1.13-1.22-5.66,0-10.93,2.56-16,.05-.09,0-.22,0-.33-1.85.44-2.43.13-3.36-1.52a10.38,10.38,0,0,0-1.6-2c-.76-.79.47-4.47.49-5.66a16.75,16.75,0,0,1,1.42-6.17c.24-.57.36-1.18.58-1.91a7.79,7.79,0,0,0-1.26-.22,58.75,58.75,0,0,1-14.28-1.91,77.84,77.84,0,0,1-7.81-2.17,60.45,60.45,0,0,1-6.29-2.78,79,79,0,0,1-15-9.63c-2.41-1.92-4.47-4.26-6.7-6.4a15.19,15.19,0,0,1-3.44-4.48,2.1,2.1,0,0,0-1-1c-2.42-1-4.1-2.9-5.74-4.83a26.79,26.79,0,0,1-4.69-7c-.57-1.37-.75-2.94-1.5-4.19s-2-2-2.89-3.08a30.23,30.23,0,0,1-4.69-9.14,34,34,0,0,1-1.55-10.33c0-2.75-.29-5.52.63-8.21.1-.3.74-6.46,1-8.28A35,35,0,0,1,80,237,16.57,16.57,0,0,1,82,234.37C82.12,234.15,82.25,233.9,82.49,233.52ZM151,98a2.49,2.49,0,0,0,.12-.83c-.75-3.12-1.53-6.23-2.28-9.35a1.63,1.63,0,0,0-1.19-1.29c-2.53-.92-5-2-7.53-2.93-5-1.88-10-3.6-15-5.6-6.36-2.57-12.63-5.35-18.93-8-1.32-.56-2.66-1.07-4-1.67-2.34-1.08-4.63-2.26-7-3.31-3.07-1.36-6.18-2.62-9.28-3.92-.58-.24-1.19-.41-1.75-.68-3.45-1.7-6.88-3.43-10.32-5.13-3.84-1.91-7.71-3.77-11.54-5.69-2.65-1.33-5.25-2.74-7.9-4.06-1.16-.57-2.41-.94-3.58-1.49s-2.23-1.16-3.33-1.77c-1.84-1-3.66-2.08-5.49-3.13-1.34-.77-2.67-1.56-4-2.3-1.05-.57-2.15-1.06-3.19-1.64-1.59-.89-3.14-1.88-4.75-2.72a1.65,1.65,0,0,0-1.44,0,30.84,30.84,0,0,0-6.82,6.43c-1.71,2.41-3.44,4.8-5.22,7.17-1.55,2.07-3.18,4.09-4.76,6.15a3.7,3.7,0,0,0-.71,1.16c-.44,1.72-1.49,3.14-2.18,4.73A44.29,44.29,0,0,0,5.41,68.83c-.15,1,0,1.31,1,1.51,2.28.46,4.54,1.09,6.82,1.59,2.5.56,5,1.08,7.51,1.58,2.74.55,5.53.88,8.22,1.62,6.85,1.91,13.86,3.06,20.83,4.45,4.93,1,9.91,1.71,14.86,2.61,3.83.7,7.65,1.5,11.47,2.24,2.6.49,5.19,1,7.79,1.42,5.6.92,11.2,1.78,16.8,2.69,3.84.63,7.68,1.3,11.52,1.95,3.17.53,6.34,1,9.51,1.59s6.53,1.17,9.8,1.76c2.7.49,5.42.9,8.1,1.5,2,.44,3.94,1.2,5.94,1.68C147.31,97.44,149.11,97.67,151,98Zm-9.76.94a15.06,15.06,0,0,1-2.11,1.48c-3.77,1.7-7.57,3.32-11.34,5-4.48,2-8.92,4.16-13.41,6.18-1.82.82-3.75,1.41-5.58,2.22a79.12,79.12,0,0,1-7.79,3.51c-4,1.29-8,2.72-12,4.19-2,.74-3.87,1.74-5.82,2.56-3.17,1.33-6.39,2.54-9.53,3.91-3.68,1.6-7.28,3.35-10.94,5-3.92,1.76-7.86,3.47-11.8,5.17s-8.14,3.45-12.19,5.19c-2.69,1.16-5.44,2.21-8,3.57-4.62,2.42-9.14,5-13.68,7.58a2.7,2.7,0,0,0-1.57,2.65,18.15,18.15,0,0,0,1.43,4.93c1.31,2.67,2.89,5.21,4.41,7.77.87,1.47,1.79,2.92,2.79,4.3,1.74,2.4,3.31,5,6.13,6.37a1.7,1.7,0,0,0,2,0c2.58-1.72,5.23-3.33,7.86-5,1.56-1,3.15-1.89,4.72-2.84,2.46-1.48,4.9-3,7.37-4.45,3.4-2,6.89-3.91,10.2-6.06,5-3.22,10.14-6.1,15.35-8.89,3.74-2,7.51-4,11.21-6,4.47-2.49,8.88-5.09,13.35-7.58,1.8-1,3.72-1.79,5.53-2.78,5.42-3,10.78-6.1,16.24-9,4.34-2.34,8.75-4.56,13.19-6.71a82.44,82.44,0,0,0,11.6-6.77,15.11,15.11,0,0,1,2.83-1.59c1.43-.6,1.69-.92,1.5-2.42-.24-1.94-.4-3.88-.67-5.81-.15-1.11-.46-2.2-.71-3.37Zm29.87,94.38a3.83,3.83,0,0,0-.63-.16c-3.27-.16-6.54-.3-9.81-.48s-6.53-.43-9.79-.56c-4.89-.2-9.75.41-14.62.6a25.65,25.65,0,0,0-7.44,1.18,9.58,9.58,0,0,1-3.21.58,8.17,8.17,0,0,0-3.95,1c-3.07,1.55-6.11,3.16-9.22,4.64a19.08,19.08,0,0,1-4.36,1.56c-3.76.74-7.56,1.31-11.36,1.91a44.22,44.22,0,0,1-15.73,0,16.44,16.44,0,0,0-2.21-.17,8.78,8.78,0,0,0-1.95,5.44c-.19,3.16-.3,6.32-.23,9.48a20,20,0,0,0,2.14,9c.53,1,1.14,2,1.8,3.15,1.41-.25,2.87-.49,4.33-.76,3.09-.57,6.18-1.2,9.28-1.7,1.7-.27,3.43-.3,5.13-.51,3.25-.38,6.5-.77,9.73-1.25q6.89-1,13.76-2.15c2.94-.49,5.86-1.12,8.79-1.65,1.75-.31,3.51-.54,5.27-.83,3.9-.64,7.8-1.32,11.71-1.93,2.83-.44,5.7-.7,8.52-1.2,3.83-.67,7.65-1.48,11.47-2.26,1.1-.22,2.19-.54,3.38-.84C169.37,208,170.08,200.73,171.07,193.32Zm-70.9,106.35c.2.42.57.82.5,1.12-.36,1.52.75,2.32,1.52,3.28.36.44.82.8,1.2,1.23a45.49,45.49,0,0,0,7.38,6.69,84,84,0,0,0,14.75,8.78,76.15,76.15,0,0,0,12.08,3.88,55,55,0,0,0,7.1,1.28c1.87.24,3.78.2,5.66.33,1.58.1,3.15.26,4.62-.56a1.7,1.7,0,0,1,.83-.2l6.9-.06a.76.76,0,0,1,.34,0c1.18.7,2.47.41,3.71.39.91,0,1.82-.32,2.73-.3a54.33,54.33,0,0,0,9.09-.69c.68-.1,1.15-.21,1.48-.91.55-1.15,1.42-1.35,2.26-.4a2.31,2.31,0,0,0,2.29.8c1.81-.24,3.63-.48,5.43-.83,2.3-.45,4.56-1.06,6.86-1.5a40.83,40.83,0,0,0,8.87-2.72c1.06-.47,2.07-1,3.39-1.69-1.34-.8-2.4-1.37-3.38-2-4.17-2.86-8.26-5.83-12.47-8.61-5.08-3.35-10.25-6.57-15.41-9.8a3.34,3.34,0,0,0-1.78-.37q-5.85.27-11.7.65c-2.11.14-4.24.25-6.33.59a134.81,134.81,0,0,1-14.71,1.53c-4.65.24-9.32.2-14,.27-2.36,0-4.71.08-7.07.08a58.05,58.05,0,0,1-7.23-.16A63.21,63.21,0,0,0,100.17,299.67Zm51.74-132a7.84,7.84,0,0,0,1-.2c3.68-1.44,7.37-2.86,11.05-4.32a33.51,33.51,0,0,1,11-2.36c1,0,2,0,3.13,0,0-.59,0-1-.09-1.37-.31-2-.66-3.95-1-5.94-.38-2.55-.64-5.12-1.1-7.66-.86-4.74-2-9.43-2.72-14.18-.84-5.37-1.39-10.79-2.1-16.19-.44-3.35-.88-6.71-1.45-10q-1.41-8.13-3-16.2c-.55-2.7-1.32-5.35-2-8-.42-1.6-.9-3.19-1.4-4.77s-1-3.4-1.69-5c-1.22-3-2.59-5.88-3.86-8.84a99.67,99.67,0,0,0-7.28-14.81,2.71,2.71,0,0,0-2.8-1.5,25.85,25.85,0,0,1-9.87-.61c-.08,0-.2.08-.3.13a2.78,2.78,0,0,0,.55,2.19c.9,1.45,1.86,2.89,2.61,4.42,1,2.1,1.92,4.28,2.8,6.45,1.36,3.35,2.81,6.66,3.94,10.08,1.22,3.7,2.08,7.51,3.15,11.26.52,1.8.85,3.67,2.05,5.24a4.23,4.23,0,0,1,.36,1.94,26.4,26.4,0,0,0,.19,2.68c.42,2,1.07,4,1.4,6,.63,3.79,1.1,7.6,1.62,11.41.12.85.19,1.71.27,2.56.34,3.6.91,7.19,1,10.79.09,5.17-.16,10.35-.31,15.52a45.65,45.65,0,0,1-.42,5c-.32,2.33-.78,4.64-1.16,7a10.57,10.57,0,0,0-.37,3.22,7.33,7.33,0,0,1-.16,3.16c-.72,2.76-1.25,5.58-1.88,8.36C152.74,164.42,152.35,165.88,151.91,167.64Zm19.68,51.45a2.68,2.68,0,0,0-.63,0q-5.64,1.11-11.28,2.26c-1.29.26-2.58.6-3.88.79-8.11,1.2-16.23,2.35-24.35,3.54a13.41,13.41,0,0,0-6,1.88,51.74,51.74,0,0,1-8.1,4.27c-2.6,1.2-5.2,2.42-7.73,3.74-4.58,2.4-9.06,4.95-13.65,7.3-4.29,2.21-8.54,4.47-12.69,6.94a9.74,9.74,0,0,0-4.73,7.91,53.43,53.43,0,0,0-.11,7.38A24.86,24.86,0,0,0,82.31,278c.75,1.15,1,1.26,2,.46,3.58-2.88,7.47-5.33,11.3-7.85,3.41-2.23,6.94-4.28,10.32-6.56,4.61-3.11,9.12-6.39,13.71-9.54,4.16-2.86,8.38-5.63,12.57-8.43,1.1-.73,2.25-1.39,3.32-2.15,1.74-1.21,3.36-2.6,5.16-3.7,2.3-1.4,4.76-2.54,7.08-3.89,1.83-1.06,3.49-2.44,5.36-3.39,3.34-1.7,6.16-4.18,9.41-6a42.51,42.51,0,0,1,4.77-2.7C169.64,223.26,171.41,222,171.59,219.09ZM54.82,170.8a7.19,7.19,0,0,0,1.52.77,153.56,153.56,0,0,1,15.37,3.73c5.81,1.77,11.73,3.21,17.5,5.08,2.07.66,4.44.46,6.22,2,5.16,2.06,10.3,4.1,15.95,4.57a107.15,107.15,0,0,1,11.39,1.7c1.56.3,3.35.32,4.47,1.77,6.18-.93,11.73-4.12,17.29-9.44a12.44,12.44,0,0,0,3.52-4.51c-2.33-1-4.47-2-6.65-2.85-2-.82-4.08-1.5-6.08-2.34q-6.51-2.73-13-5.58c-4.36-1.92-8.78-3.73-13-5.94-3.47-1.83-7.12-3.2-10.7-4.73-2.79-1.19-5.71-2.07-8.54-3.15a3.12,3.12,0,0,0-2.93.29c-2.08,1.23-4.17,2.44-6.34,3.49a146.24,146.24,0,0,0-15.13,8.44c-2.46,1.57-5,3.09-7.45,4.62C57.2,169.38,56.13,170,54.82,170.8Zm68.62,85.31a8,8,0,0,0,.9.95c1.84,1.26,3.69,2.53,5.57,3.75,3.08,2,6.25,3.87,9.27,5.95,2.41,1.66,4.67,3.53,7,5.32,7,5.42,14.61,10,22,14.85,5.8,3.84,11.65,7.62,17.62,11.19s11.43,7.5,17.16,11.23a91.69,91.69,0,0,0,10.72,6.5c2.21-1,4.49-2,6.79-3a2.36,2.36,0,0,1,1.18-.11,2.05,2.05,0,0,0,1.94-.84c2-2.43,4.19-4.76,6-7.35,2.19-3.21,4.06-6.65,6-10a3.48,3.48,0,0,0-1.08-3.77c-1.24-.73-2.54-1.36-3.77-2.09-2.21-1.3-4.39-2.65-6.57-4-1.71,2.1-3.51,4.11-5.07,6.29a31.6,31.6,0,0,1-3.95,4.29c-1.67,1.63-4.68,2.21-6.58.72a.8.8,0,0,0-.59-.13,33.07,33.07,0,0,0-5.56,1,21.59,21.59,0,0,1-7.47.94,24.86,24.86,0,0,1-12.16-3.28c-2.15-1.21-4.17-2.63-6.26-3.94-.82-.51-1.69-.94-2.52-1.45a2.67,2.67,0,0,1-.65-.65,10,10,0,0,0-.55-.83,15.86,15.86,0,0,1-4.46-8.72,34.16,34.16,0,0,1-.22-11c.45-2.66.63-5.35,1-8a1.26,1.26,0,0,0-1-1.55c-.81-.28-1.63-.56-2.42-.9-6.61-2.81-13.21-5.65-19.83-8.43-2.32-1-4.72-1.77-6.81-3.49ZM169.52,83.83l-.35.28c.22,1.11.43,2.21.65,3.31.36,1.86.74,3.72,1.07,5.58.49,2.82.93,5.65,1.46,8.47a2.72,2.72,0,0,0,.84,1.43,29.87,29.87,0,0,0,2.62,2c3.26,2.34,6.58,4.59,9.76,7,1.82,1.38,3.37,3.1,5.09,4.61,2.28,2,4.64,3.92,6.92,5.92,5,4.34,9.85,8.75,14.44,13.49,2.14,2.21,4.37,4.37,6.66,6.43,1.58,1.42,3.35,2.6,5,3.93,3,2.44,6,4.93,9.08,7.36a11.38,11.38,0,0,0,1.72.89,50.48,50.48,0,0,0,.17-6.85,55.36,55.36,0,0,0-1.89-10.82c-.34-1.09-.52-2.23-.78-3.34a55.37,55.37,0,0,0-10.37-23,3.69,3.69,0,0,0-1.3-1.06c-4.71-2.09-9.45-4.12-14.17-6.19-1.89-.83-3.8-1.61-5.63-2.55-2.45-1.25-4.82-2.67-7.25-4-2.72-1.46-5.5-2.8-8.2-4.3-4.45-2.47-8.85-5-13.29-7.53C171,84.54,170.27,84.2,169.52,83.83ZM62.25,23a2.63,2.63,0,0,0,1,1.84c.75.7,1.53,1.38,2.22,2.13,2.35,2.58,4.64,5.19,7,7.77,1,1.1,2.14,2.07,3.1,3.2,3.91,4.65,7.71,9.38,11.69,14,1.2,1.38,2,3.41,4.21,3.66.18,0,.35.29.49.47a20,20,0,0,1,1.5,2.09,6.84,6.84,0,0,0,4.18,3.5c6.19,1.91,12.28,4.14,18.46,6.07,3.16,1,6.44,1.62,9.68,2.34,2.68.6,5.39,1.07,8.07,1.67s5.44,1.38,8.17,2a15,15,0,0,0,2.79,0c-.52-1.75-.94-3.34-1.48-4.89-.89-2.54-2-5-2.77-7.58C139,55.66,135.76,51,132.83,46.26a6.07,6.07,0,0,0-4.26-2.9c-2.37-.41-4.72-.91-7.08-1.34-3.47-.63-7-1.21-10.43-1.88-2-.38-4-1-6-1.31a72.44,72.44,0,0,1-9.63-2.5c-1.26-.38-2.5-.87-3.78-1.12a69.32,69.32,0,0,1-13.48-4.58C74.3,29,70.54,27.05,66.73,25.22,65.3,24.53,63.89,23.78,62.25,23ZM149.7,37.64l.08,0c-.1-.56-.21-1.12-.3-1.68-.5-3.12-2.43-5.52-4.1-8a2.52,2.52,0,0,0-2.32-1.2c-2.2,0-4.41-.14-6.61-.16a98.08,98.08,0,0,1-14-1.18c-2.25-.35-4.49-.82-6.72-1.32-1.82-.41-3.62-.92-5.43-1.42a28.7,28.7,0,0,1-4.11-1.25c-3-1.35-6-2.74-8.94-4.33A60.64,60.64,0,0,1,83.88,7.45,6.41,6.41,0,0,0,80.5,5.52c-2.57-.46-5.1-1.12-7.73-1.34a28.14,28.14,0,0,0-6,.27,35,35,0,0,0-8.34,2.46,18.57,18.57,0,0,0-5.54,3.35c-.91.8-.88,1.54.11,2.19s1.84,1.15,2.77,1.72c3.37,2.07,6.71,4.19,10.11,6.19,2.37,1.38,4.78,2.7,7.25,3.88,3.52,1.67,7,3.36,10.7,4.71s7.5,2.38,11.29,3.45,7.51,2.09,11.31,2.94c5.36,1.21,10.75,2.27,16.13,3.34,2.53.5,5.09.84,7.62,1.34,3.2.63,6.48.61,9.65,1.55a14.75,14.75,0,0,0,6.11.5c2.78-.38,3.62-1.29,3.72-4.09C149.71,37.87,149.7,37.75,149.7,37.64Zm23,256.32c-.56-.41-.82-.62-1.1-.8-4.87-3.17-9.73-6.34-14.61-9.46a5.59,5.59,0,0,0-1.93-.66c-2.19-.43-4.4-.77-6.59-1.22-2-.4-3.9-.95-5.88-1.32-3.61-.66-7.24-1.19-10.85-1.85-3.95-.73-7.87-1.55-11.81-2.31-1.64-.32-3.27-.65-4.92-.88a63.67,63.67,0,0,0-7-.81c-4-.12-8.06,0-12.08,0a2.89,2.89,0,0,0-1.43.44c-2.48,1.67-4.94,3.35-7.36,5.11a1.94,1.94,0,0,0-.69,1.42,18.82,18.82,0,0,0,.64,4.58c1.17,3.63,3.65,6.47,6.07,9.31a5.85,5.85,0,0,0,1.46.86c0-1,.54-1.16,1.26-.94a2.46,2.46,0,0,1,1.09.47,3.34,3.34,0,0,0,3.16.86,129.54,129.54,0,0,1,15.64,0c5.23.13,10.46.06,15.69,0,2.7,0,5.41-.41,8.09-.19a54.48,54.48,0,0,0,8.19-.28c2.46-.16,4.89-.72,7.35-.87s4.92-.86,7.46-.86c3,0,6.07-.31,9.1-.49C171.9,294.07,172.12,294,172.72,294Zm-19.29-178.8c-1.93,1.33-3.47,2.38-5,3.45-.9.63-1.73,1.36-2.67,1.89-2.14,1.2-4.33,2.33-6.5,3.47q-2.67,1.4-5.36,2.74c-3.12,1.58-6.29,3.08-9.37,4.74-4.37,2.36-8.66,4.88-13,7.26-5.08,2.77-10.21,5.46-15.3,8.22-1,.57-2,1.31-3.3,2.16,2.07.82,3.78,1.47,5.47,2.19,3.37,1.43,6.75,2.85,10.08,4.37,2.56,1.17,5,2.48,7.55,3.75a2.52,2.52,0,0,0,3-.25c1.11-.9,2.24-1.76,3.38-2.62,2-1.52,4-3.09,6.07-4.5,4-2.7,8.06-5.28,12-8,4.14-2.79,8.21-5.67,12.34-8.47a2.09,2.09,0,0,0,1-1.7c.15-2.06.34-4.12.34-6.19,0-2.69-.12-5.39-.26-8.09C153.84,118.27,153.63,116.92,153.43,115.16Zm97.26,122.89a6.46,6.46,0,0,0-1.19,0c-2.8.64-5.62,1.08-8.45,1.52a91.45,91.45,0,0,0-13.54,3.08,11.2,11.2,0,0,1-3.51.78,24.86,24.86,0,0,0-9.8,2.24,103.92,103.92,0,0,1-11.66,3.47,10.57,10.57,0,0,0-3.07,1,4.89,4.89,0,0,1-2.07.8c-1.75.28-3.33,2.27-1.75,4.21a8,8,0,0,1,11.57,3.54,9.61,9.61,0,0,1,.47,5.75c-.07.52-.29,1,.43,1.42a16.26,16.26,0,0,0,1.85-1.42,19.1,19.1,0,0,1,6.41-4.25c3.86-1.58,7.47-1.49,10.88,1.07a2.1,2.1,0,0,0,.93.41c1.74.14,2.2,1.39,2.51,2.8.18.82.35,1.65.52,2.46.44,0,.73.05,1,.05a49.3,49.3,0,0,1,11.31.74,4.21,4.21,0,0,0,4.33-1.45,16.88,16.88,0,0,0,3.86-7.6,55.72,55.72,0,0,0,.45-15.26c-.11-1.11-.26-2-1.49-2.36ZM222,150.26a9.87,9.87,0,0,0-1.14-1.62c-.88-.79-1.9-1.44-2.77-2.26-3.25-3.06-6.52-6.11-9.68-9.26-3.66-3.64-7.47-7.12-11.36-10.5-2.43-2.11-4.92-4.13-7.38-6.2-2.92-2.46-5.48-5.34-8.68-7.49-2.36-1.58-4.58-3.39-7.32-4.53a15.45,15.45,0,0,0,0,1.81c.31,2.38.68,4.76,1,7.14.34,2.61.62,5.23,1,7.85.18,1.47.42,2.94.66,4.42.6,3.73,1.19,7.47,1.84,11.2.41,2.37.94,4.71,1.39,7.07.26,1.37.39,1.55,1.74,1.65,2,.15,4,.24,6,.36,3.43.19,6.84.73,10.29.4.78-.08,1.58.13,2.37.12,3.33,0,6.65-.13,10-.16C213.83,150.24,217.73,150.26,222,150.26ZM233,158.9a20.23,20.23,0,0,0-3.54,1.49c-1.84,1.2-4,1.62-5.87,2.69a6.06,6.06,0,0,1-1.12.44c-3.33,1.19-6.68,2.35-10,3.55-1.89.68-3.74,1.44-5.62,2.14-3.48,1.28-7,2.54-10.45,3.81-2.26.83-4.5,1.74-6.79,2.46-4,1.26-8,2.4-12,3.61-4.83,1.46-9.61,3.07-14.47,4.4-3.59,1-7.28,1.59-10.9,2.44A72.91,72.91,0,0,1,142.5,188a3.63,3.63,0,0,0-1.12.55c5,.33,10,.21,14.91.36s10.06.58,15.16.89c.91-1.27,2.34-2.9,2.55-3.13a13.85,13.85,0,0,1,9-4.34c4.51-.4,8.41,1,11.06,4.95a3.74,3.74,0,0,0,3.87,1.66c1.49-.17,3-.24,4.46-.42a10.8,10.8,0,0,0,2.85-.52,48.19,48.19,0,0,0,9.65-5.3c1.83-1.28,3.64-2.57,5.5-3.8a93.66,93.66,0,0,0,8.85-6.26c2-1.7,4.25-3.12,6.36-4.71a13.44,13.44,0,0,0,2.12-1.93,1.59,1.59,0,0,0,.25-1.91c-.38-.65-.72-1.31-1.1-2C236,160.64,234.47,159.85,233,158.9Zm.33,45.47c-1.14.11-2.24.14-3.3.33-4.34.81-8.65,1.73-13,2.48-5.1.89-10,2.65-14.93,4A2.73,2.73,0,0,0,199.9,214a8.5,8.5,0,0,1-1.54,4.86,2.78,2.78,0,0,0-.22,3c.68,1.7,1.29,3.43,1.91,5.16.76,2.09.09,3.22-2.16,3.67-2,.41-2.55,1.44-1.83,3.32a9.41,9.41,0,0,1,.71,2.28c.2,1.87.35,3.77.38,5.65a17.76,17.76,0,0,1-.42,2.68c-.12.86-.6,1.71-.15,2.6,2.58-.65,5.07-1.32,7.58-1.89a1.7,1.7,0,0,0,1.26-1.23,16.46,16.46,0,0,1,2.52-4.44c2.18-2.57,4.29-5.21,6.26-7.95,2.53-3.54,5.12-7,7.94-10.35,2.26-2.67,4.27-5.55,6.42-8.31,1.82-2.35,3.68-4.66,5.45-6.9ZM32,29.69c.88.59,1.73,1.23,2.64,1.75,2.45,1.38,5,2.62,7.37,4.05A106.37,106.37,0,0,0,54,41.82C58.1,43.63,62,45.89,66.06,48c2.7,1.39,5.37,2.84,8.09,4.2,2.5,1.26,5,2.45,7.6,3.62,1.74.79,3.52,1.5,5.52,2.36A5.52,5.52,0,0,0,86.84,57c-.59-.83-1.2-1.66-1.86-2.45C82.35,51.4,79.77,48.2,77,45.12c-4-4.5-8.05-8.92-12.13-13.33-1.2-1.3-2.7-2.34-3.79-3.72A61.82,61.82,0,0,0,54,20.9c-1.56-1.42-3.15-2.81-4.76-4.25C39.59,19.72,36.38,23.91,32,29.69Zm7.06,150.62a19.27,19.27,0,0,0,4.4,7.52c1.37,1.39,2.77,2.75,4.17,4.1a30.12,30.12,0,0,0,8.73,5.72c2.55,1.15,5.31,1.41,8,1.93a2.25,2.25,0,0,0,1.44-.37c1.57-1,3.13-1.92,4.63-3,3.1-2.17,6.16-4.39,9.25-6.59.93-.66,1.89-1.28,2.83-1.94q2.32-1.61,4.64-3.25c.34-.23.64-.53,1.07-.89-.77-.26-1.3-.47-1.84-.62l-12.06-3.39c-2.92-.82-5.85-1.62-8.78-2.42-4.85-1.31-9.91-1.7-14.73-3.19a2.21,2.21,0,0,0-1.32.07,9.1,9.1,0,0,0-1.84.87q-3.91,2.33-7.79,4.72A6.89,6.89,0,0,0,39.08,180.31Zm198.09,28.55a21.35,21.35,0,0,0-1.72,1.54c-1.91,2.27-3.81,4.54-5.68,6.85s-3.6,4.59-5.42,6.88c-1.67,2.1-3.37,4.18-5,6.3-2,2.52-3.91,5.07-5.85,7.62a7.76,7.76,0,0,0-.82,1.31c-.59,1.12-1.15,2.27-1.76,3.48.38-.07.71-.11,1-.2,1.1-.31,2.19-.64,3.3-.94,2.32-.61,4.66-1.19,7-1.83,1.76-.48,3.49-1.07,5.24-1.57a57,57,0,0,1,10.6-2.11c2.79-.25,5.54-.9,8.3-1.37l4.61-.76c.06-.53.12-1,.15-1.42a32.36,32.36,0,0,0-1.39-9.31,10,10,0,0,0-3-4.69c-.24-.24-.53-.45-.75-.7-2.18-2.43-4.32-4.89-6.54-7.28A17.82,17.82,0,0,0,237.17,208.86Zm-36.89-1.27a8.51,8.51,0,0,0,4.07-.7c1.58-.51,3.11-1.23,4.72-1.58,5.2-1.13,10.42-2.2,15.65-3.17,5.52-1,11-2,16.43-3.6a1.88,1.88,0,0,0,1.15-.84,8.84,8.84,0,0,0,.47-6.81c-.34-.88-.76-1.34-1.72-1.33-1.65,0-3.3,0-5,0-2.58,0-5.17,0-7.74.08-2.92.15-5.83.48-8.74.73-2.34.21-4.68.4-7,.64s-4.65.52-7,.79l-7.1.8c-.78,1.11,0,2.07.2,3.07A54.1,54.1,0,0,1,200.28,207.59ZM173.36,363.08c-1.41.63-2.52,1.19-3.69,1.64-3.59,1.39-7.2,2.73-10.8,4.11a11.85,11.85,0,0,0-1.37.71,1.32,1.32,0,0,0-.62,1.73,7.08,7.08,0,0,0,.77,1.53c.52.82,1.13,1.6,1.61,2.44,1.45,2.51,2.82,5.07,4.29,7.57,1.29,2.21,2.73,4.33,4,6.56,1.58,2.77,3.08,5.6,4.57,8.44.41.77,1,1.46,1.39,2.23.61,1.1,1.38,2.51,3.13,2.46,1.49,0,3,.1,4.47.05s1.53-.25,1.24-1.68c-1.07-5.28-2-10.58-3.27-15.82-1.61-6.86-3.43-13.68-5.18-20.51A14,14,0,0,0,173.36,363.08ZM33.79,116.7a19.66,19.66,0,0,0-.47-3.66,39.55,39.55,0,0,0-2.25-5.57,12.79,12.79,0,0,0-3.48-4.21A12.47,12.47,0,0,0,18,100.75a2,2,0,0,0-1.6.83,18.26,18.26,0,0,0-3.17,7.35,45,45,0,0,0-.39,5.82c-.12,2.85,1.19,5.19,2.81,7.37a8.08,8.08,0,0,0,2,2.08A16.63,16.63,0,0,0,26,126.71a7.16,7.16,0,0,0,7.26-5.82C33.47,119.43,33.63,117.94,33.79,116.7ZM170.11,227.12a8.31,8.31,0,0,0-1,.39c-1.25.71-2.48,1.44-3.71,2.17-3,1.76-5.86,3.59-8.86,5.27s-5.85,4-9.13,5.41a51.49,51.49,0,0,0-5.17,3c1.78,1,3.23,2,4.79,2.79s3.4,1.32,5.09,2c4.62,1.89,9.22,3.83,13.84,5.72a13,13,0,0,0,1.78.5l-.49-.68,2.67-1.83a13.64,13.64,0,0,0-.42-2.72,13.21,13.21,0,0,1,.22-9.43c.59-1.53.66-3.21,1.53-4.67.24-.39,0-1.09-.07-1.64-.26-1.57-.57-3.14-.84-4.71C170.21,228.23,170.18,227.73,170.11,227.12Zm-52-34.13-.13-.35c-1.71-.42-3.42-.87-5.14-1.25A81,81,0,0,1,101.48,188c-2.62-1-5.32-1.82-8-2.66a2.28,2.28,0,0,0-1.59.12c-1.41.78-2.76,1.65-4.08,2.55q-5.48,3.73-10.91,7.53c-.88.61-1.67,1.36-2.51,2,.83,1.31,2.13,1.54,3.31,1.92,4.41,1.4,9,1.37,13.5,1.12,2.74-.16,5.45-.72,8.18-1A42.88,42.88,0,0,0,114.94,195C116,194.36,117.07,193.64,118.13,193ZM99.72,387.69a9.74,9.74,0,0,0,1.11,1.4c.93.85,1.92,1.63,2.92,2.41s1.8,1.41,2.75,2.05c3.08,2.09,6.16,4.16,9.27,6.2a4.36,4.36,0,0,0,1.87.77c2,.21,4.11.3,6.17.38,3.1.14,6.19.31,9.29.31,1.62,0,3.28.62,5.12-.28a15.32,15.32,0,0,0-1.2-1.42c-.32-.31-.81-.46-1.1-.79a75.22,75.22,0,0,0-8.19-7.26c-1.58-1.31-3.32-2.42-4.93-3.7a3.73,3.73,0,0,0-2.27-1.06,1.56,1.56,0,0,1-1.64-1.45,1.59,1.59,0,0,0-1.49-1.41c-.79-.15-1.56-.43-2.35-.55-2.32-.34-4.63-.74-6.94.16-1.65.64-3.34,1.17-5,1.69A6.09,6.09,0,0,0,99.72,387.69Zm49.74-108.88.11-.22c-.59-.43-1.19-.84-1.77-1.28-3.2-2.44-6.38-4.9-9.58-7.33-1.74-1.32-3.45-2.68-5.29-3.84-2.38-1.51-4.87-2.82-7.3-4.26-1.87-1.1-3.7-2.26-5.54-3.39-1.29.82-2.5,1.57-3.7,2.34s-2.49,1.63-3.73,2.46-2.36,1.62-3.55,2.42a30.58,30.58,0,0,0-3.67,2.53c-1,.93-2.65,1.05-3.41,2.56.75.14,1.37.3,2,.35,3.71.25,7.42.51,11.14.69a72.78,72.78,0,0,1,13.78,2.05l15.38,3.72C146,278,147.74,278.41,149.46,278.81ZM168.07,80.09a17.94,17.94,0,0,1,3,.69c2.19,1,4.35,2.07,6.47,3.21,2.37,1.27,4.67,2.69,7,4,3.38,1.82,6.9,3.41,10.17,5.42a85.89,85.89,0,0,0,12.16,6,4.32,4.32,0,0,0,.83.06c-1.17-1.45-2.1-2.73-3.16-3.9-2.73-3-5.45-6-8.29-8.95a79.26,79.26,0,0,0-7.25-6.83,43.1,43.1,0,0,0-7.15-4.39,39.57,39.57,0,0,0-14.59-4.26,7.91,7.91,0,0,0-1.9.32C166.37,74.55,167.24,77.38,168.07,80.09ZM138.55,22.58l.11-.39c-.6-.48-1.17-1-1.8-1.42a61.27,61.27,0,0,0-5.17-3.32c-2-1.05-4.07-1.82-6.09-2.75-4.73-2.17-9.23-4.8-14.16-6.53a38.17,38.17,0,0,0-10.07-2c-.84-.07-1.72.31-2.53.17a13.39,13.39,0,0,0-5.39.56c-.92.22-1.81.55-3,.91A14.28,14.28,0,0,0,92.34,9.5c2.85,1.79,5.68,3.64,8.64,5.22a70.15,70.15,0,0,0,6.8,2.85,56.88,56.88,0,0,0,9.6,2.65A80.89,80.89,0,0,0,128.2,22c2.16.16,4.32.42,6.48.55C136,22.66,137.26,22.59,138.55,22.58ZM150.31,156a10.76,10.76,0,0,0-1.51-.58,53.5,53.5,0,0,0-6.21-1.29,17.12,17.12,0,0,1-6.06-1.78,2.2,2.2,0,0,0-2.53.16c-2.68,1.87-5.45,3.6-8.11,5.48-1.47,1-2.81,2.27-4.44,3.6,8.42,4.16,16.92,7.37,25.32,10.78C147.42,171.31,150.13,158.76,150.31,156Zm24.81,37.55a39.94,39.94,0,0,0-1.44,11.58c.11,1.48.45,3,.48,4.43a10.18,10.18,0,0,0,1.08,4.27,3.18,3.18,0,0,0,1.46,1.56,16.27,16.27,0,0,1,3.77,2.3c2.23,1.49,4.51,2.91,6.82,4.29s4.68,2.67,7,4a10.06,10.06,0,0,0,1.52.56c-2.87-7.93-5.68-15.49-10.67-22A65.32,65.32,0,0,0,175.12,193.58Zm15.45,57.61-.43-.06c-1.07,1.26-2.18,2.49-3.2,3.79a34.21,34.21,0,0,1-5.71,5.7,44.77,44.77,0,0,0-7,7.09c-.64.81-2.23,6.8-2.23,7.73a20.7,20.7,0,0,0,1.66,7.34,3.71,3.71,0,0,0,.93,1.23c.84.81,1.67.64,2.2-.4.33-.67.58-1.38.95-2,1.2-2.07,2.4-4.15,3.67-6.18,1.09-1.75,2.32-3.42,3.42-5.16,1.65-2.62,3.37-5.21,4.81-7.94,1-1.91,2.38-3.78,1.69-6.26A41.29,41.29,0,0,1,190.57,251.19ZM231,270.72c-.62,1.46-1.16,2.83-1.77,4.17-.83,1.83-1.7,3.63-2.55,5.44a1.37,1.37,0,0,0,.46,2c1.67,1.1,3.29,2.27,5,3.27,1.48.86,3.08,1.52,4.62,2.27,1.21.58,1.58.55,2.35-.51.94-1.29,1.76-2.67,2.68-4a25.85,25.85,0,0,0,4-10.53,6,6,0,0,0-.07-1.41C240.62,271,235.75,269.9,231,270.72Zm-57.65-19.57a4,4,0,0,0,.74-.05c2.63-.81,5.25-1.65,7.89-2.44a64.07,64.07,0,0,0,8.78-3.47c2.44-1.14,3-2.68,2.6-5a50.31,50.31,0,0,0-1.24-5,1,1,0,0,0-1.53-.61c-2,1.18-4.23,1.37-6.36,2a30.32,30.32,0,0,1-8.68,1.15,2.15,2.15,0,0,0-2.24,1.47C171.52,243.2,172,247.13,173.34,251.15Zm10,27.73-5.1,8.47c.72.51,1.33,1,2,1.43,1,.63,2.1,1.18,3.14,1.8a25.71,25.71,0,0,0,8.14,3.18c3.89.77,7.72.8,11.38-1a3.5,3.5,0,0,1,1-.36c1.71-.29,3-1.35,4.48-2.41-1.93-1.55-4.26-1.61-6.28-2.45s-4.15-1.67-6.21-2.55-4.22-1.8-6.28-2.8S185.63,280.09,183.35,278.88ZM145.21,383.44a11.66,11.66,0,0,0,1.08,2.15c1.18,1.45,2.45,2.84,3.73,4.2,3.53,3.72,7,7.46,10.65,11.1a5.42,5.42,0,0,0,3.71,2c1.77,0,3.54.15,5.18.23.82-.78.54-1.51.08-2.23s-.88-1.34-1.27-2c-2.2-3.95-4.36-7.92-6.59-11.85a4.22,4.22,0,0,0-3-2.38,5.17,5.17,0,0,1-1.08-.48,14.39,14.39,0,0,0-3.33-1.26C151.37,382.53,148.29,381.76,145.21,383.44Zm-30.5-154.21-.15-.22c-2.48.33-5,.73-7.43,1-4.22.44-8.45.73-12.67,1.19-2.38.25-4.75.68-7.12,1.08a2,2,0,0,0-1.2.56c-1,1.37-2,2.8-2.91,4.22-1.93,2.86-2.78,6.13-3.58,9.42a9.13,9.13,0,0,0-.08,1.55Zm11.35,155.18a4.62,4.62,0,0,0,.6,1.44,21,21,0,0,0,2.61,2.2c1.57,1.11,3.24,2.07,4.78,3.22,1.82,1.35,3.61,2.75,5.29,4.27a64.08,64.08,0,0,1,5.09,5.07,4.49,4.49,0,0,0,3.57,1.55c1.82,0,3.65.11,5.47.13.92,0,1.84-.07,2.91-.11-.18-.59-.19-1-.39-1.22-1-1.1-2-2.19-3-3.21A144.53,144.53,0,0,1,141.87,386a1.35,1.35,0,0,0-.81-.45,22.45,22.45,0,0,1-3-.67c-2.2-.55-4.36-1.43-6.72-1.05-.15,0-.33-.11-.5-.11A11,11,0,0,0,126.06,384.41Zm48.32-31.32a11.92,11.92,0,0,0-.47-1.5c-1-2.18-2-4.4-3.13-6.52a58.85,58.85,0,0,0-5.93-9.67,32.86,32.86,0,0,1-3-4.43,2.22,2.22,0,0,0-2.27-1.43c-.8.06-1.6,0-2.4.08a1.38,1.38,0,0,0-.94.34c-.94,1.14-2.06,2.14-2.52,3.65a20.59,20.59,0,0,0-.87,5.41,3.26,3.26,0,0,0,2.17,3.49,53,53,0,0,1,4.8,2.32C164.62,347.49,169.34,350.22,174.38,353.09Zm28.74-78c-1.23,1.18-2.26,2.31-3.45,3.27s-2.27.63-3.5-.78l4.19-6c-.83-.77-1.27-1.49-2.47-.95a8.45,8.45,0,0,1-2.7.31,27.22,27.22,0,0,1-3.24.2,24.59,24.59,0,0,1-3.08-.49c-1.17,1.66-2.75,3-3.3,5.06,9,5.37,18.65,8.32,28.43,11.57-.31-1.24-.55-2.18-.77-3.11s-.42-1.91-.68-2.85c-.19-.67-.76.35-1.53.11C206.28,282.34,203.36,279.65,203.12,275.08ZM69.25,115.94a12.54,12.54,0,0,0,2.92-4.61,5.84,5.84,0,0,0,.25-3.54c-.89-3.75-3.46-6-6.73-7.54a1.66,1.66,0,0,0-1.18,0,5.56,5.56,0,0,0-3,1.91c-1.61,2.52-2.88,5.06-2.87,8.24,0,3.35,3.86,6.65,7.12,5.92A29.27,29.27,0,0,1,69.25,115.94ZM215.6,187.06a3.88,3.88,0,0,0,.82.15c1.82-.21,3.65-.36,5.44-.7,2.79-.52,5.78.18,8.4-1.36a1.4,1.4,0,0,1,.51-.07c2.14-.23,4.28-.47,6.43-.69.73-.07,1.41-.27,1.6-1,1-3.89,1.44-7.78-.26-11.62a3,3,0,0,0-.57-.64,39.35,39.35,0,0,0-5.61,3.93,70.37,70.37,0,0,1-6,4.25c-1.08.73-2.23,1.35-3.29,2.09-1.6,1.12-3.16,2.3-4.72,3.48C217.48,185.51,216.63,186.22,215.6,187.06Zm-39.27,32.42c.91,1.64.71,2.76-.77,4.11-.42.39-.83.79-1.22,1.21a1.14,1.14,0,0,0-.31.54,14.89,14.89,0,0,0,.91,8.24,1.29,1.29,0,0,0,1.3.9,8.74,8.74,0,0,0,1.54-.07c3.19-.65,6.41-1.22,9.57-2a16.33,16.33,0,0,0,6-2.91C187.35,226.44,182.34,222.1,176.33,219.48Zm-2.72,138.44c-.17-.24-.23-.44-.37-.52-4.05-2.48-8.09-5-12.17-7.41-.67-.4-1.31-1.39-2.25-.7a8.06,8.06,0,0,0-1.69,1.89,4.84,4.84,0,0,0-.68,1.56,24.54,24.54,0,0,0-.71,8.36,9,9,0,0,0,.65,2.65c.43,1.08.77,1.21,1.85.86s2-.74,3.07-1.12l5.3-2a14.34,14.34,0,0,0,1.77-.66C170.13,359.89,171.85,358.9,173.61,357.92ZM184,197.35a70.25,70.25,0,0,1,11.49,17.87c1.91-3.85,1-18.25-1.8-22.11-1.55.65-3.12,1.3-4.67,2S185.87,196.52,184,197.35Zm-10.3,145c2.1-2.66,5.69-11.73,5.56-14.13a6.56,6.56,0,0,0-1,0,51.42,51.42,0,0,1-10.07.75,7.7,7.7,0,0,0-1.36.06,14,14,0,0,0-1.35.36Zm41.56-76.89c1.29,3.83,6,9.09,9.28,10.21.49-1.1,1-2.22,1.5-3.36a7,7,0,0,0-.94-7.12C222.67,261.79,218,262.25,215.29,265.49Zm-24.06-75.8c-.31-.39-.51-.65-.73-.9a7,7,0,0,0-9-1.77,39,39,0,0,0-3.34,2,1.21,1.21,0,0,0-.32,2c.67.78,1.51,1.4,2.2,2.15a1.91,1.91,0,0,0,2.36.41C185.31,192.35,188.2,191,191.23,189.69Zm-19,74.78c.38-.16.52-.18.58-.25,2.46-3,5.48-5.34,8.31-7.93a64.55,64.55,0,0,0,4.51-5.09,5.14,5.14,0,0,0-1,0c-3,.94-6,1.88-9,2.88a2.33,2.33,0,0,0-1.11,1A19.54,19.54,0,0,0,172.2,264.47ZM109,400.17l.21-.3a31,31,0,0,0-5.24-3.68c-1.85-1.24-3.59-2.64-5.46-4a8.25,8.25,0,0,0-.55,5.57,2,2,0,0,0,2.38,1.8c.34,0,.68.08,1,.11Zm93-132.65c1.4-1.74,2.22-5.29,1.63-7a4.82,4.82,0,0,0-2.44-2.78,2.32,2.32,0,0,0-2.58.15c-.61.49-1.19,1-1.72,1.47C197.79,262.5,199.84,264.93,202,267.52ZM188,399.83c1.59-4.51,1-8.51-2.38-12a4.56,4.56,0,0,1-.55.08c-1.42,0-1.64.14-1.38,1.52.21,1.07,1.32,5.6,2.52,9.29.07.17,0,.42,0,.47Zm34.41-120.19c-1.31-.82-2.44-1.58-3.61-2.26s-1.71-2.09-3.42-2.33a4.2,4.2,0,0,1,.38,1.65,1.77,1.77,0,0,0,.06,1c.33,1.57.66,3.13,1,4.69.28,1.19.62,2.36,1,3.83A26.82,26.82,0,0,0,222.45,279.64Zm-25.84-12.3c-1.05-1.65-1.89-3-2.85-4.46a13.68,13.68,0,0,0-2.56,4.46Zm6.51,7.74c.13-.07,2.08,4.9,9.33,5.94-.37-1.24-1.95-8.14-2.37-9.36-.35-1-.91-1.17-1.83-.59C207.79,271.36,204.9,273.64,203.12,275.08Z"/><path class="cls-2" d="M151.91,167.64c.44-1.76,4.41-24.07,4.73-26.4a45.65,45.65,0,0,0,.42-5c.15-5.17.4-10.35.31-15.52-.06-3.6-.63-7.19-1-10.79-.08-.85-.15-1.71-.27-2.56-.52-3.81-1-7.62-1.62-11.41-.33-2-1-4-1.4-6a26.4,26.4,0,0,1-.19-2.68,4.23,4.23,0,0,0-.36-1.94c-1.2-1.57-1.53-3.44-2.05-5.24-1.07-3.75-1.93-7.56-3.15-11.26-1.13-3.42-2.58-6.73-3.94-10.08-.88-2.17-1.77-4.35-2.8-6.45-.75-1.53-1.71-3-2.61-4.42a2.78,2.78,0,0,1-.55-2.19c.1,0,.22-.15.3-.13a25.85,25.85,0,0,0,9.87.61,2.71,2.71,0,0,1,2.8,1.5,99.67,99.67,0,0,1,7.28,14.81c1.27,3,2.64,5.87,3.86,8.84.67,1.64,1.16,3.35,1.69,5s1,3.17,1.4,4.77c.71,2.66,1.48,5.31,2,8q1.62,8.07,3,16.2c.57,3.33,1,6.69,1.45,10,.71,5.4,1.26,10.82,2.1,16.19.75,4.75,1.86,9.44,2.72,14.18.46,2.54.72,5.11,1.1,7.66.3,2,.65,4,1,5.94.06.39.05.78.09,1.37-1.12,0-2.13,0-3.13,0a33.51,33.51,0,0,0-11,2.36c-3.68,1.46-7.37,2.88-11.05,4.32A7.84,7.84,0,0,1,151.91,167.64Z"/><path class="cls-3" d="M151.91,167.64c.44-1.76,4.41-24.07,4.73-26.4.23-1.64,12.13-41.29,13.07-35.87.57,3.33,1,6.69,1.45,10,.71,5.4,1.26,10.82,2.1,16.19.75,4.75,1.86,9.44,2.72,14.18.46,2.54.72,5.11,1.1,7.66.3,2,.65,4,1,5.94.06.39.05.78.09,1.37-1.12,0-2.13,0-3.13,0a33.51,33.51,0,0,0-11,2.36c-3.68,1.46-7.37,2.88-11.05,4.32A7.84,7.84,0,0,1,151.91,167.64Z"/><path class="cls-3" d="M138,47.91a2.78,2.78,0,0,1-.55-2.19c.1,0,.22-.15.3-.13a25.85,25.85,0,0,0,9.87.61,2.71,2.71,0,0,1,2.8,1.5C146.15,49.45,138.91,49.36,138,47.91Z"/><path class="cls-2" d="M151,98c-1.85-.33-3.65-.56-5.41-1-2-.48-3.93-1.24-5.94-1.68-2.68-.6-5.4-1-8.1-1.5-3.27-.59-6.53-1.19-9.8-1.76s-6.34-1.06-9.51-1.59c-3.84-.65-7.68-1.32-11.52-1.95-5.6-.91-11.2-1.77-16.8-2.69-2.6-.43-5.19-.93-7.79-1.42-3.82-.74-7.64-1.54-11.47-2.24-5-.9-9.93-1.62-14.86-2.61-7-1.39-14-2.54-20.83-4.45-2.69-.74-5.48-1.07-8.22-1.62-2.51-.5-5-1-7.51-1.58-2.28-.5-4.54-1.13-6.82-1.59-1-.2-1.12-.55-1-1.51A44.29,44.29,0,0,1,9,58.14c.69-1.59,1.74-3,2.18-4.73a3.7,3.7,0,0,1,.71-1.16c1.58-2.06,3.21-4.08,4.76-6.15,1.78-2.37,3.51-4.76,5.22-7.17a30.84,30.84,0,0,1,6.82-6.43,1.65,1.65,0,0,1,1.44,0c1.61.84,3.16,1.83,4.75,2.72,1,.58,2.14,1.07,3.19,1.64,1.35.74,2.68,1.53,4,2.3,1.83,1,3.65,2.1,5.49,3.13,1.1.61,2.19,1.24,3.33,1.77s2.42.92,3.58,1.49c2.65,1.32,5.25,2.73,7.9,4.06,3.83,1.92,7.7,3.78,11.54,5.69,3.44,1.7,6.87,3.43,10.32,5.13.56.27,1.17.44,1.75.68,3.1,1.3,6.21,2.56,9.28,3.92,2.36,1,4.65,2.23,7,3.31,1.3.6,2.64,1.11,4,1.67,6.3,2.69,12.57,5.47,18.93,8,4.93,2,10,3.72,15,5.6,2.52.94,5,2,7.53,2.93a1.63,1.63,0,0,1,1.19,1.29c.75,3.12,1.53,6.23,2.28,9.35A2.49,2.49,0,0,1,151,98Z"/><path class="cls-2" d="M141.2,98.94l10.54,2.32c.25,1.17.56,2.26.71,3.37.27,1.93.43,3.87.67,5.81.19,1.5-.07,1.82-1.5,2.42a15.11,15.11,0,0,0-2.83,1.59,82.44,82.44,0,0,1-11.6,6.77c-4.44,2.15-8.85,4.37-13.19,6.71-5.46,2.93-10.82,6-16.24,9-1.81,1-3.73,1.78-5.53,2.78-4.47,2.49-8.88,5.09-13.35,7.58-3.7,2.06-7.47,4-11.21,6-5.21,2.79-10.38,5.67-15.35,8.89-3.31,2.15-6.8,4-10.2,6.06-2.47,1.46-4.91,3-7.37,4.45-1.57.95-3.16,1.87-4.72,2.84-2.63,1.63-5.28,3.24-7.86,5a1.7,1.7,0,0,1-2,0c-2.82-1.4-4.39-4-6.13-6.37-1-1.38-1.92-2.83-2.79-4.3-1.52-2.56-3.1-5.1-4.41-7.77a18.15,18.15,0,0,1-1.43-4.93A2.7,2.7,0,0,1,17,154.51c4.54-2.57,9.06-5.16,13.68-7.58,2.59-1.36,5.34-2.41,8-3.57,4-1.74,8.13-3.44,12.19-5.19s7.88-3.41,11.8-5.17c3.66-1.64,7.26-3.39,10.94-5,3.14-1.37,6.36-2.58,9.53-3.91,2-.82,3.83-1.82,5.82-2.56,4-1.47,8-2.9,12-4.19a79.12,79.12,0,0,0,7.79-3.51c1.83-.81,3.76-1.4,5.58-2.22,4.49-2,8.93-4.15,13.41-6.18,3.77-1.7,7.57-3.32,11.34-5A15.06,15.06,0,0,0,141.2,98.94Z"/><path class="cls-2" d="M171.07,193.32c-1,7.41-1.7,14.7.8,22-1.19.3-2.28.62-3.38.84-3.82.78-7.64,1.59-11.47,2.26-2.82.5-5.69.76-8.52,1.2-3.91.61-7.81,1.29-11.71,1.93-1.76.29-3.52.52-5.27.83-2.93.53-5.85,1.16-8.79,1.65q-6.87,1.16-13.76,2.15c-3.23.48-6.48.87-9.73,1.25-1.7.21-3.43.24-5.13.51-3.1.5-6.19,1.13-9.28,1.7-1.46.27-2.92.51-4.33.76-.66-1.15-1.27-2.13-1.8-3.15a20,20,0,0,1-2.14-9c-.07-3.16,0-6.32.23-9.48a8.78,8.78,0,0,1,1.95-5.44,16.44,16.44,0,0,1,2.21.17,44.22,44.22,0,0,0,15.73,0c3.8-.6,7.6-1.17,11.36-1.91a19.08,19.08,0,0,0,4.36-1.56c3.11-1.48,6.15-3.09,9.22-4.64a8.17,8.17,0,0,1,3.95-1,9.58,9.58,0,0,0,3.21-.58,25.65,25.65,0,0,1,7.44-1.18c4.87-.19,9.73-.8,14.62-.6,3.26.13,6.53.39,9.79.56s6.54.32,9.81.48A3.83,3.83,0,0,1,171.07,193.32Z"/><path class="cls-2" d="M100.17,299.67a63.21,63.21,0,0,1,14.94.1,58.05,58.05,0,0,0,7.23.16c2.36,0,4.71,0,7.07-.08,4.65-.07,9.32,0,14-.27a134.81,134.81,0,0,0,14.71-1.53c2.09-.34,4.22-.45,6.33-.59q5.85-.37,11.7-.65a3.34,3.34,0,0,1,1.78.37c5.16,3.23,10.33,6.45,15.41,9.8,4.21,2.78,8.3,5.75,12.47,8.61,1,.67,2,1.24,3.38,2-1.32.66-2.33,1.22-3.39,1.69A40.83,40.83,0,0,1,196.9,322c-2.3.44-4.56,1-6.86,1.5-1.8.35-3.62.59-5.43.83-.88.12-5.35.41-6,.51a54.33,54.33,0,0,1-9.09.69c-.91,0-1.82.28-2.73.3-1.24,0-11.11.91-16.4.39-1.88-.13-3.79-.09-5.66-.33a55,55,0,0,1-7.1-1.28,76.15,76.15,0,0,1-12.08-3.88A84,84,0,0,1,110.77,312a45.49,45.49,0,0,1-7.38-6.69c-.38-.43-.84-.79-1.2-1.23-.77-1-1.88-1.76-1.52-3.28C100.74,300.49,100.37,300.09,100.17,299.67Z"/><path class="cls-2" d="M171.59,219.09c-.18,2.9-2,4.17-4.31,5.11a42.51,42.51,0,0,0-4.77,2.7c-3.25,1.82-6.07,4.3-9.41,6-1.87.95-3.53,2.33-5.36,3.39-2.32,1.35-4.78,2.49-7.08,3.89-1.8,1.1-3.42,2.49-5.16,3.7-1.07.76-2.22,1.42-3.32,2.15-4.19,2.8-8.41,5.57-12.57,8.43-4.59,3.15-9.1,6.43-13.71,9.54-3.38,2.28-6.91,4.33-10.32,6.56-3.83,2.52-7.72,5-11.3,7.85-1,.8-1.22.69-2-.46a24.86,24.86,0,0,1-3.89-12.84,53.43,53.43,0,0,1,.11-7.38,9.74,9.74,0,0,1,4.73-7.91c4.15-2.47,8.4-4.73,12.69-6.94,4.59-2.35,9.07-4.9,13.65-7.3,2.53-1.32,5.13-2.54,7.73-3.74a51.74,51.74,0,0,0,8.1-4.27,13.41,13.41,0,0,1,6-1.88c8.12-1.19,16.24-2.34,24.35-3.54,1.3-.19,2.59-.53,3.88-.79q5.64-1.14,11.28-2.26A2.68,2.68,0,0,1,171.59,219.09Z"/><path class="cls-2" d="M54.82,170.8c1.31-.79,2.38-1.42,3.44-2.07,2.49-1.53,5-3,7.45-4.62a146.24,146.24,0,0,1,15.13-8.44c2.17-1,4.26-2.26,6.34-3.49a3.12,3.12,0,0,1,2.93-.29c2.83,1.08,5.75,2,8.54,3.15,3.58,1.53,7.23,2.9,10.7,4.73,4.21,2.21,8.63,4,13,5.94s8.64,3.76,13,5.58c2,.84,4.07,1.52,6.08,2.34,2.18.88,4.32,1.85,6.65,2.85a12.44,12.44,0,0,1-3.52,4.51c-5.56,5.32-11.11,8.51-17.29,9.44-1.12-1.45-2.91-1.47-4.47-1.77a107.15,107.15,0,0,0-11.39-1.7c-5.65-.47-10.79-2.51-15.95-4.57-1.78-1.55-4.15-1.35-6.22-2-5.77-1.87-11.69-3.31-17.5-5.08a153.56,153.56,0,0,0-15.37-3.73A7.19,7.19,0,0,1,54.82,170.8Z"/><path class="cls-3" d="M54.82,170.8c1.31-.79,2.38-1.42,3.44-2.07,2.49-1.53,5-3,7.45-4.62a146.24,146.24,0,0,1,15.13-8.44c2.17-1,4.26-2.26,6.34-3.49a3.12,3.12,0,0,1,2.93-.29c2.83,1.08-28.59,20.69-33.77,19.68A7.19,7.19,0,0,1,54.82,170.8Z"/><path class="cls-2" d="M123.44,256.11,139,245.68c2.09,1.72,4.49,2.51,6.81,3.49,6.62,2.78,13.22,5.62,19.83,8.43.79.34,1.61.62,2.42.9a1.26,1.26,0,0,1,1,1.55c-.35,2.67-.53,5.36-1,8a34.16,34.16,0,0,0,.22,11,15.86,15.86,0,0,0,4.46,8.72,10,10,0,0,1,.55.83,2.67,2.67,0,0,0,.65.65c.83.51,1.7.94,2.52,1.45,2.09,1.31,4.11,2.73,6.26,3.94a24.86,24.86,0,0,0,12.16,3.28,21.59,21.59,0,0,0,7.47-.94c3.26-2.15,13-.88,16.68-5.92,1.56-2.18,3.36-4.19,5.07-6.29,2.18,1.33,4.36,2.68,6.57,4,1.23.73,2.53,1.36,3.77,2.09a3.48,3.48,0,0,1,1.08,3.77c-2,3.36-3.85,6.8-6,10-1.78,2.59-4,4.92-6,7.35-3.19,3.42-8.13,3.9-9.91,3.9a91.69,91.69,0,0,1-10.72-6.5c-5.73-3.73-11.28-7.72-17.16-11.23s-11.82-7.35-17.62-11.19c-7.36-4.89-15-9.43-22-14.85-2.32-1.79-4.58-3.66-7-5.32-3-2.08-6.19-3.95-9.27-5.95-1.88-1.22-3.73-2.49-5.57-3.75A8,8,0,0,1,123.44,256.11Z"/><path class="cls-2" d="M169.52,83.83c.75.37,1.52.71,2.25,1.12,4.44,2.51,8.84,5.06,13.29,7.53,2.7,1.5,5.48,2.84,8.2,4.3,2.43,1.29,4.8,2.71,7.25,4,1.83.94,3.74,1.72,5.63,2.55,4.72,2.07,9.46,4.1,14.17,6.19a3.69,3.69,0,0,1,1.3,1.06,55.37,55.37,0,0,1,10.37,23c.26,1.11.44,2.25.78,3.34a55.36,55.36,0,0,1,1.89,10.82,50.48,50.48,0,0,1-.17,6.85,11.38,11.38,0,0,1-1.72-.89c-3-2.43-6-4.92-9.08-7.36-1.65-1.33-3.42-2.51-5-3.93-2.29-2.06-4.52-4.22-6.66-6.43-4.59-4.74-9.48-9.15-14.44-13.49-2.28-2-4.64-3.91-6.92-5.92-1.72-1.51-3.27-3.23-5.09-4.61-3.18-2.44-6.5-4.69-9.76-7a29.87,29.87,0,0,1-2.62-2,2.72,2.72,0,0,1-.84-1.43c-.53-2.82-1-5.65-1.46-8.47-.33-1.86-.71-3.72-1.07-5.58-.22-1.1-.43-2.2-.65-3.31Z"/><path class="cls-2" d="M62.25,23c1.64.82,3,1.57,4.48,2.26,3.81,1.83,7.57,3.78,11.46,5.41a69.32,69.32,0,0,0,13.48,4.58c1.28.25,2.52.74,3.78,1.12a72.44,72.44,0,0,0,9.63,2.5c2,.32,4,.93,6,1.31,3.47.67,7,1.25,10.43,1.88,2.36.43,4.71.93,7.08,1.34a6.07,6.07,0,0,1,4.26,2.9c2.93,4.78,6.17,9.4,7.69,14.94.72,2.58,1.88,5,2.77,7.58.54,1.55,1,3.14,1.48,4.89a15,15,0,0,1-2.79,0c-2.73-.61-5.43-1.37-8.17-2s-5.39-1.07-8.07-1.67c-3.24-.72-6.52-1.36-9.68-2.34-6.18-1.93-12.27-4.16-18.46-6.07-4.7-1.39-9.18-8.34-10.38-9.72-4-4.58-7.78-9.31-11.69-14-1-1.13-2.1-2.1-3.1-3.2-2.35-2.58-4.64-5.19-7-7.77-.69-.75-1.47-1.43-2.22-2.13A2.63,2.63,0,0,1,62.25,23Z"/><path class="cls-2" d="M149.7,37.64c0,.11,0,.23,0,.34-.1,2.8-.94,3.71-3.72,4.09a14.75,14.75,0,0,1-6.11-.5c-3.17-.94-6.45-.92-9.65-1.55-2.53-.5-5.09-.84-7.62-1.34-5.38-1.07-10.77-2.13-16.13-3.34-3.8-.85-7.56-1.88-11.31-2.94S87.55,30.32,83.87,29s-7.18-3-10.7-4.71c-2.47-1.18-4.88-2.5-7.25-3.88-3.4-2-6.74-4.12-10.11-6.19C54.88,13.6,54,13.05,53,12.45s-1-1.39-.11-2.19a18.57,18.57,0,0,1,5.54-3.35,35,35,0,0,1,8.34-2.46,28.14,28.14,0,0,1,6-.27c2.63.22,5.16.88,7.73,1.34a6.41,6.41,0,0,1,3.38,1.93A60.64,60.64,0,0,0,97.24,17c2.9,1.59,5.92,3,8.94,4.33a28.7,28.7,0,0,0,4.11,1.25c1.81.5,3.61,1,5.43,1.42,2.23.5,4.47,1,6.72,1.32a98.08,98.08,0,0,0,14,1.18c2.2,0,4.41.17,6.61.16a2.52,2.52,0,0,1,2.32,1.2c1.67,2.53,3.6,4.93,4.1,8,.09.56.2,1.12.3,1.68Z"/><path class="cls-2" d="M172.72,294c-.6.07-.82.11-1,.12-3,.18-6.07.51-9.1.49-2.54,0-5,.71-7.46.86s-4.89.71-7.35.87a54.48,54.48,0,0,1-8.19.28c-2.68-.22-5.39.17-8.09.19-5.23,0-10.46.1-15.69,0a129.54,129.54,0,0,0-15.64,0c-1.06.14-4.66.73-7-1.25a20.51,20.51,0,0,1-6.07-9.31,18.82,18.82,0,0,1-.64-4.58,1.94,1.94,0,0,1,.69-1.42c2.42-1.76,4.88-3.44,7.36-5.11a2.89,2.89,0,0,1,1.43-.44c4,0,8.05-.14,12.08,0a63.67,63.67,0,0,1,7,.81c1.65.23,3.28.56,4.92.88,3.94.76,7.86,1.58,11.81,2.31,3.61.66,7.24,1.19,10.85,1.85,2,.37,3.91.92,5.88,1.32,2.19.45,4.4.79,6.59,1.22a5.59,5.59,0,0,1,1.93.66c4.88,3.12,9.74,6.29,14.61,9.46C171.9,293.34,172.16,293.55,172.72,294Z"/><path class="cls-2" d="M153.43,115.16c.2,1.76.41,3.11.48,4.45.14,2.7.27,5.4.26,8.09,0,2.07-.19,4.13-.34,6.19a2.09,2.09,0,0,1-1,1.7c-4.13,2.8-8.2,5.68-12.34,8.47-4,2.69-8.06,5.27-12,8-2.08,1.41-4.05,3-6.07,4.5-1.14.86-2.27,1.72-3.38,2.62a2.52,2.52,0,0,1-3,.25c-2.51-1.27-5-2.58-7.55-3.75-3.33-1.52-6.71-2.94-10.08-4.37-1.69-.72-3.4-1.37-5.47-2.19,1.29-.85,2.25-1.59,3.3-2.16,5.09-2.76,10.22-5.45,15.3-8.22,4.37-2.38,8.66-4.9,13-7.26,3.08-1.66,6.25-3.16,9.37-4.74q2.68-1.35,5.36-2.74c2.17-1.14,4.36-2.27,6.5-3.47.94-.53,1.77-1.26,2.67-1.89C150,117.54,151.5,116.49,153.43,115.16Z"/><path class="cls-3" d="M153.43,115.16c.2,1.76.35,2.21.42,3.56.13,2.7-52.58,33.79-55.95,32.36-1.69-.72-2.93-1.17-5-2,1.29-.85,2.25-1.59,3.3-2.16,5.09-2.76,10.22-5.45,15.3-8.22,4.37-2.38,8.66-4.9,13-7.26,3.08-1.66,6.25-3.16,9.37-4.74q2.68-1.35,5.36-2.74c2.17-1.14,4.36-2.27,6.5-3.47.94-.53,1.77-1.26,2.67-1.89C150,117.54,151.5,116.49,153.43,115.16Z"/><path class="cls-2" d="M250.69,238.05c.43,1.88,1.38,4.28,1.49,5.39a55.72,55.72,0,0,1-.45,15.26,16.88,16.88,0,0,1-3.86,7.6,4.21,4.21,0,0,1-4.33,1.45,49.3,49.3,0,0,0-11.31-.74c-.28,0-.57,0-1-.05-.21-4.48-7.47-9.53-14.84-6.74a19.1,19.1,0,0,0-6.41,4.25,16.26,16.26,0,0,1-1.85,1.42c-.72-.42-.5-.9-.43-1.42a9.61,9.61,0,0,0-.47-5.75,8,8,0,0,0-11.57-3.54c-1.58-1.94,0-3.93,1.75-4.21a4.89,4.89,0,0,0,2.07-.8,10.57,10.57,0,0,1,3.07-1,103.92,103.92,0,0,0,11.66-3.47,24.86,24.86,0,0,1,9.8-2.24,11.2,11.2,0,0,0,3.51-.78,91.45,91.45,0,0,1,13.54-3.08c2.83-.44,5.65-.88,8.45-1.52A6.46,6.46,0,0,1,250.69,238.05Z"/><path class="cls-2" d="M222,150.26c-4.3,0-8.2,0-12.09,0-3.33,0-6.65.12-10,.16-.79,0-1.59-.2-2.37-.12-3.45.33-6.86-.21-10.29-.4-2-.12-4-.21-6-.36-1.35-.1-1.48-.28-1.74-1.65-.45-2.36-1-4.7-1.39-7.07-.65-3.73-1.24-7.47-1.84-11.2-.24-1.48-.48-3-.66-4.42-.34-2.62-.62-5.24-1-7.85-.31-2.38-.68-4.76-1-7.14a15.45,15.45,0,0,1,0-1.81c2.74,1.14,5,2.95,7.32,4.53,3.2,2.15,5.76,5,8.68,7.49,2.46,2.07,5,4.09,7.38,6.2,3.89,3.38,7.7,6.86,11.36,10.5,3.16,3.15,6.43,6.2,9.68,9.26.87.82,1.89,1.47,2.77,2.26A9.87,9.87,0,0,1,222,150.26Z"/><path class="cls-2" d="M233,158.9c1.5.95,3,1.74,3.87,3.24.38.64.72,1.3,1.1,2a1.59,1.59,0,0,1-.25,1.91,13.44,13.44,0,0,1-2.12,1.93c-2.11,1.59-4.35,3-6.36,4.71a93.66,93.66,0,0,1-8.85,6.26c-1.86,1.23-3.67,2.52-5.5,3.8a48.19,48.19,0,0,1-9.65,5.3,10.8,10.8,0,0,1-2.85.52c-1.48.18-3,.25-4.46.42a3.74,3.74,0,0,1-3.87-1.66c-2.65-4-6.55-5.35-11.06-4.95-3.57-.28-10,4.68-11.52,7.47-5.1-.31-10.12-.73-15.16-.89s-9.89,0-14.91-.36a3.63,3.63,0,0,1,1.12-.55,72.91,72.91,0,0,0,9.71-2.07c3.62-.85,7.31-1.45,10.9-2.44,4.86-1.33,9.64-2.94,14.47-4.4,4-1.21,8-2.35,12-3.61,2.29-.72,4.53-1.63,6.79-2.46,3.49-1.27,7-2.53,10.45-3.81,1.88-.7,3.73-1.46,5.62-2.14,3.32-1.2,6.67-2.36,10-3.55a6.06,6.06,0,0,0,1.12-.44c1.87-1.07,4-1.49,5.87-2.69A20.23,20.23,0,0,1,233,158.9Z"/><path class="cls-2" d="M233.3,204.37l.71,1.81c-1.77,2.24-3.63,4.55-5.45,6.9-2.15,2.76-4.16,5.64-6.42,8.31-2.82,3.33-5.41,6.81-7.94,10.35-2,2.74-4.08,5.38-6.26,7.95a16.46,16.46,0,0,0-2.52,4.44,1.7,1.7,0,0,1-1.26,1.23c-2.51.57-5,1.24-7.58,1.89-.45-.89,0-1.74.15-2.6a17.76,17.76,0,0,0,.42-2.68c0-1.88-.18-3.78-.38-5.65a9.41,9.41,0,0,0-.71-2.28c-.72-1.88-.17-2.91,1.83-3.32,2.25-.45,2.92-1.58,2.16-3.67-.62-1.73-1.23-3.46-1.91-5.16a2.78,2.78,0,0,1,.22-3A8.5,8.5,0,0,0,199.9,214a2.73,2.73,0,0,1,2.18-2.84c5-1.35,9.83-3.11,14.93-4,4.34-.75,8.65-1.67,13-2.48C231.06,204.51,232.16,204.48,233.3,204.37Z"/><path class="cls-2" d="M32,29.69c4.36-5.78,7.57-10,17.22-13,1.61,1.44,3.2,2.83,4.76,4.25a61.82,61.82,0,0,1,7.12,7.17c1.09,1.38,2.59,2.42,3.79,3.72C69,36.2,73.06,40.62,77,45.12c2.73,3.08,5.31,6.28,7.94,9.44.66.79,1.27,1.62,1.86,2.45a5.52,5.52,0,0,1,.43,1.14c-2-.86-3.78-1.57-5.52-2.36-2.55-1.17-5.1-2.36-7.6-3.62-2.72-1.36-5.39-2.81-8.09-4.2-4-2.08-8-4.34-12.09-6.15A106.37,106.37,0,0,1,42,35.49c-2.41-1.43-4.92-2.67-7.37-4.05C33.75,30.92,32.9,30.28,32,29.69Z"/><path class="cls-2" d="M39.08,180.31a6.89,6.89,0,0,1,.8-.7q3.88-2.38,7.79-4.72a9.1,9.1,0,0,1,1.84-.87,2.21,2.21,0,0,1,1.32-.07c4.82,1.49,9.88,1.88,14.73,3.19,2.93.8,5.86,1.6,8.78,2.42L86.4,183c.54.15,1.07.36,1.84.62-.43.36-.73.66-1.07.89q-2.31,1.65-4.64,3.25c-.94.66-1.9,1.28-2.83,1.94-3.09,2.2-6.15,4.42-9.25,6.59-1.5,1-3.06,2-4.63,3a2.25,2.25,0,0,1-1.44.37c-2.69-.52-5.45-.78-8-1.93a30.12,30.12,0,0,1-8.73-5.72c-1.4-1.35-2.8-2.71-4.17-4.1A19.27,19.27,0,0,1,39.08,180.31Z"/><path class="cls-3" d="M39.08,180.31a6.89,6.89,0,0,1,.8-.7q3.88-2.38,7.79-4.72a9.1,9.1,0,0,1,1.84-.87,2.21,2.21,0,0,1,1.32-.07c4.82,1.49,9.88,1.88,14.73,3.19,2.93.8,5.86,1.6,8.78,2.42L86.4,183c.54.15,1.07.36,1.84.62-.43.36-.73.66-1.07.89q-2.31,1.65-4.64,3.25c-30.57-8.88-29.88-13.25-41.67-3.37A22.82,22.82,0,0,1,39.08,180.31Z"/><path class="cls-2" d="M237.17,208.86a17.82,17.82,0,0,1,2.29,1.8c2.22,2.39,4.36,4.85,6.54,7.28.22.25.51.46.75.7a10,10,0,0,1,3,4.69,32.36,32.36,0,0,1,1.39,9.31c0,.44-.09.89-.15,1.42l-4.61.76c-2.76.47-5.51,1.12-8.3,1.37a57,57,0,0,0-10.6,2.11c-1.75.5-3.48,1.09-5.24,1.57-2.32.64-4.66,1.22-7,1.83-1.11.3-2.2.63-3.3.94-.32.09-.65.13-1,.2.61-1.21,1.17-2.36,1.76-3.48a7.76,7.76,0,0,1,.82-1.31c1.94-2.55,3.88-5.1,5.85-7.62,1.65-2.12,3.35-4.2,5-6.3,1.82-2.29,3.59-4.61,5.42-6.88s3.77-4.58,5.68-6.85A21.35,21.35,0,0,1,237.17,208.86Z"/><path class="cls-2" d="M200.28,207.59a54.1,54.1,0,0,0-1.54-11.94c-.21-1-1-2-.2-3.07l7.1-.8c2.32-.27,4.64-.55,7-.79s4.67-.43,7-.64c2.91-.25,5.82-.58,8.74-.73,2.57-.13,5.16-.07,7.74-.08,1.65,0,3.3.05,5,0,1,0,1.38.45,1.72,1.33a8.84,8.84,0,0,1-.47,6.81,1.88,1.88,0,0,1-1.15.84c-5.39,1.55-10.91,2.58-16.43,3.6-5.23,1-10.45,2-15.65,3.17-1.61.35-3.14,1.07-4.72,1.58A8.51,8.51,0,0,1,200.28,207.59Z"/><path class="cls-4" d="M33.23,120.89A7.16,7.16,0,0,1,26,126.71c-6.38-.25-13.11-2.8-13.1-12,.08-1.94-.61-7.56,3.56-13.17,2.17-2.64,7.94-.71,11.15,1.14C32,105,35.64,113.69,33.23,120.89Z"/><path class="cls-2" d="M170.11,227.12c.07.61.1,1.11.19,1.6.27,1.57.58,3.14.84,4.71.09.55.31,1.25.07,1.64-.87,1.46-.94,3.14-1.53,4.67a13.21,13.21,0,0,0-.22,9.43,13.64,13.64,0,0,1,.42,2.72c-.4,1.6-1.31,2.51-2.18,2.51a13,13,0,0,1-1.78-.5c-4.62-1.89-9.22-3.83-13.84-5.72-1.69-.7-3.45-1.23-5.09-2s-3-1.74-4.79-2.79a51.49,51.49,0,0,1,5.17-3c3.28-1.43,6-3.67,9.13-5.41s5.91-3.51,8.86-5.27c1.23-.73,2.46-1.46,3.71-2.17A8.31,8.31,0,0,1,170.11,227.12Z"/><path class="cls-2" d="M118.13,193c-1.06.65-2.09,1.37-3.19,2a42.88,42.88,0,0,1-15.56,4.69c-2.73.31-5.44.87-8.18,1-4.54.25-9.09.28-13.5-1.12-1.18-.38-2.48-.61-3.31-1.92.84-.69,1.63-1.44,2.51-2q5.43-3.79,10.91-7.53c1.32-.9,2.67-1.77,4.08-2.55a2.28,2.28,0,0,1,1.59-.12c2.68.84,5.38,1.67,8,2.66a81,81,0,0,0,11.38,3.35c1.72.38,3.43.83,5.14,1.25Z"/><path class="cls-2" d="M149.46,278.81c-1.72-.4-3.43-.79-5.14-1.2l-15.38-3.72a72.78,72.78,0,0,0-13.78-2.05c-3.72-.18-7.43-.44-11.14-.69-.62,0-1.24-.21-2-.35.76-1.51,2.39-1.63,3.41-2.56a30.58,30.58,0,0,1,3.67-2.53c1.19-.8,2.36-1.62,3.55-2.42s2.48-1.65,3.73-2.46,2.41-1.52,3.7-2.34c1.84,1.13,3.67,2.29,5.54,3.39,2.43,1.44,4.92,2.75,7.3,4.26,1.84,1.16,3.55,2.52,5.29,3.84,3.2,2.43,6.38,4.89,9.58,7.33.58.44,1.18.85,1.77,1.28Z"/><path class="cls-2" d="M168.07,80.09c-.83-2.71-1.7-5.54-2.64-8.63a7.91,7.91,0,0,1,1.9-.32,39.57,39.57,0,0,1,14.59,4.26,43.1,43.1,0,0,1,7.15,4.39,79.26,79.26,0,0,1,7.25,6.83c2.84,2.91,5.56,5.93,8.29,8.95,1.06,1.17,2,2.45,3.16,3.9a4.32,4.32,0,0,1-.83-.06,85.89,85.89,0,0,1-12.16-6c-3.27-2-6.79-3.6-10.17-5.42-2.37-1.29-4.67-2.71-7-4-2.12-1.14-4.28-2.22-6.47-3.21A17.94,17.94,0,0,0,168.07,80.09Z"/><path class="cls-2" d="M138.55,22.58c-1.29,0-2.58.08-3.87,0-2.16-.13-4.32-.39-6.48-.55a80.89,80.89,0,0,1-10.82-1.81,56.88,56.88,0,0,1-9.6-2.65,70.15,70.15,0,0,1-6.8-2.85c-3-1.58-5.79-3.43-8.64-5.22a14.28,14.28,0,0,1-1.87-1.72c1.17-.36,2.06-.69,3-.91a13.39,13.39,0,0,1,5.39-.56c.81.14,1.69-.24,2.53-.17a38.17,38.17,0,0,1,10.07,2c4.93,1.73,9.43,4.36,14.16,6.53,2,.93,4.13,1.7,6.09,2.75a61.27,61.27,0,0,1,5.17,3.32c.63.42,1.2.94,1.8,1.42Z"/><path class="cls-2" d="M150.31,156c-.18,2.73-2.89,15.28-3.54,16.37-8.4-3.41-16.9-6.62-25.32-10.78,1.63-1.33,3-2.56,4.44-3.6,2.66-1.88,5.43-3.61,8.11-5.48a2.2,2.2,0,0,1,2.53-.16,17.12,17.12,0,0,0,6.06,1.78,53.5,53.5,0,0,1,6.21,1.29A10.76,10.76,0,0,1,150.31,156Z"/><path class="cls-2" d="M231,270.72c4.76-.82,9.63.26,14.73.68a6,6,0,0,1,.07,1.41,25.85,25.85,0,0,1-4,10.53c-.92,1.31-1.74,2.69-2.68,4-.77,1.06-1.14,1.09-2.35.51-1.54-.75-3.14-1.41-4.62-2.27-1.73-1-3.35-2.17-5-3.27a1.37,1.37,0,0,1-.46-2c.85-1.81,1.72-3.61,2.55-5.44C229.83,273.55,230.37,272.18,231,270.72Z"/><path class="cls-2" d="M114.71,229.23,79.57,248a9.13,9.13,0,0,1,.08-1.55c.8-3.29,1.65-6.56,3.58-9.42,1-1.42,1.89-2.85,2.91-4.22a2,2,0,0,1,1.2-.56c2.37-.4,4.74-.83,7.12-1.08,4.22-.46,8.45-.75,12.67-1.19,2.48-.26,5-.66,7.43-1Z"/><path class="cls-4" d="M69.25,115.94c-8.8,2-10.58-2.24-10.59-5.59a14.22,14.22,0,0,1,2.1-8.26c.7-1.09,3.63-2.41,4.93-1.84a10.38,10.38,0,0,1,7,7.47C73.69,110.6,71.68,115.16,69.25,115.94Z"/><path class="cls-2" d="M215.6,187.06c1-.84,1.88-1.55,2.76-2.22,1.56-1.18,3.12-2.36,4.72-3.48,1.06-.74,2.21-1.36,3.29-2.09a70.37,70.37,0,0,0,6-4.25,39.35,39.35,0,0,1,5.61-3.93,3,3,0,0,1,.57.64c1.7,3.84,1.27,7.73.26,11.62-.19.77-.87,1-1.6,1-2.15.22-4.29.46-6.43.69a1.4,1.4,0,0,0-.51.07c-2.62,1.54-5.61.84-8.4,1.36-1.79.34-3.62.49-5.44.7A3.88,3.88,0,0,1,215.6,187.06Z"/><path class="cls-3" d="M62.25,23c1.64.82,3,1.57,4.48,2.26,3.81,1.83,7.57,3.78,11.46,5.41a69.32,69.32,0,0,0,13.48,4.58c1.28.25,2.52.74,3.78,1.12a72.44,72.44,0,0,0,9.63,2.5c2,.32,4,.93,6,1.31,3.47.67,7,1.25,10.43,1.88,2.36.43,4.71.93,7.08,1.34a6.07,6.07,0,0,1,4.26,2.9c2.93,4.78,6.17,9.4,7.69,14.94.72,2.58,1.88,5,2.77,7.58.54,1.55,1,3.14,1.48,4.89-.1,0-1.58.11-2.32.06a26.23,26.23,0,0,1-3.7-.86c1.18-2.35-1.15-19.08-10.69-24.52-22.87-3.73-49.73-14.18-52.6-15.42C73.32,32,93,58.63,116.06,67.65c-11-3.26-20-5.52-23.1-9C83.71,49.57,63.72,25.27,63.22,24.8A2.63,2.63,0,0,1,62.25,23Z"/><path class="cls-3" d="M141.2,98.94l10.54,2.32c.25,1.17.56,2.26.71,3.37.07.45,1.54,7.83.18,7.7-.46,0-1.68,1.68-2,1-.35-6.74-1.09-8.59-2.7-9.24-5-2.06-7.37-3.17-8.81-3.69A15.06,15.06,0,0,0,141.2,98.94Z"/><path class="cls-3" d="M125.64,163.61c-1.64-.74-2.56-1.18-4.19-2,1.63-1.33,3-2.56,4.44-3.6,2.66-1.88,5.43-3.61,8.11-5.48a2.2,2.2,0,0,1,2.53-.16,54.07,54.07,0,0,0,7.22,1.94C140.15,155.84,128.69,159.69,125.64,163.61Z"/><path class="cls-3" d="M118.13,193c-1.06.65-2.09,1.37-3.19,2a38.53,38.53,0,0,1-4.24,2c-13.56-5.82-20.91-4.82-27.3,3.75a26.1,26.1,0,0,1-5.7-1.1c-1.18-.38-2.48-.61-3.31-1.92.84-.69,1.63-1.44,2.51-2q5.43-3.79,10.91-7.53c1.32-.9,2.67-1.77,4.08-2.55a2.28,2.28,0,0,1,1.59-.12c2.68.84,5.38,1.67,8,2.66a81,81,0,0,0,11.38,3.35c1.72.38,3.43.83,5.14,1.25Z"/><path class="cls-3" d="M32,29.69a14.83,14.83,0,0,1,2.16-2.81C41.68,31.7,86.29,56.24,86.84,57a5.52,5.52,0,0,1,.43,1.14c-2-.86-3.78-1.57-5.52-2.36-2.55-1.17-5.1-2.36-7.6-3.62-2.72-1.36-5.39-2.81-8.09-4.2-4-2.08-8-4.34-12.09-6.15A106.37,106.37,0,0,1,42,35.49c-2.41-1.43-4.92-2.67-7.37-4.05C33.75,30.92,32.9,30.28,32,29.69Z"/><path class="cls-3" d="M114.71,229.23,79.57,248a6.89,6.89,0,0,1,.43-3c17.14-7.92,22.32-13.22,20.62-12.41s-9.62,1.62-16.44,3c.95-1.42.94-1.43,2-2.8a2,2,0,0,1,1.2-.56c2.37-.4,4.74-.83,7.12-1.08,4.22-.46,8.45-.75,12.67-1.19,2.48-.26,5-.66,7.43-1Z"/><path class="cls-3" d="M149.46,278.81c-1.72-.4-3.43-.79-5.14-1.2-2.78-.67-13.12-10-22.76-11.48-8.14-1.29-15.84,5.13-17.54,5-.62,0-1.24-.21-2-.35.76-1.51,2.39-1.63,3.41-2.56a30.58,30.58,0,0,1,3.67-2.53c1.19-.8,2.36-1.62,3.55-2.42s2.48-1.65,3.73-2.46,2.41-1.52,3.7-2.34c1.84,1.13,3.67,2.29,5.54,3.39,2.43,1.44,4.92,2.75,7.3,4.26,1.84,1.16,3.55,2.52,5.29,3.84,3.2,2.43,6.38,4.89,9.58,7.33.58.44,1.18.85,1.77,1.28Z"/><path class="cls-3" d="M171.59,219.09c-.18,2.9-2,4.17-4.31,5.11-1.68.67-44.38,5.12-41.85,3.37a13.41,13.41,0,0,1,6-1.88c8.12-1.19,16.24-2.34,24.35-3.54,1.3-.19,2.59-.53,3.88-.79q5.64-1.14,11.28-2.26A2.68,2.68,0,0,1,171.59,219.09Z"/><path class="cls-3" d="M170.11,227.12c.07.61.1,1.11.19,1.6.27,1.57.58,3.14.84,4.71.09.55.31,1.25.07,1.64-.87,1.46-.94,3.14-1.53,4.67a13.21,13.21,0,0,0-.22,9.43,13.64,13.64,0,0,1,.42,2.72c-.4,1.6-1.31,2.51-2.18,2.51a13,13,0,0,1-1.78-.5c-4.62-1.89-9.22-3.83-13.84-5.72-1.69-.7-3.45-1.23-5.09-2s-3-1.74-4.79-2.79a51.49,51.49,0,0,1,5.17-3c3.28-1.43,6-3.67,9.13-5.41s5.91-3.51,8.86-5.27c1.23-.73,2.46-1.46,3.71-2.17A8.31,8.31,0,0,1,170.11,227.12Z"/><path class="cls-2" d="M164.61,237c.76-4.61-17.49,5.5-7.45,8.92S163.53,243.51,164.61,237Z"/><path class="cls-3" d="M123.44,256.11,139,245.68a13.41,13.41,0,0,0,1.43,1c.49.3-12.4,9.48-16.12,10.36A8,8,0,0,1,123.44,256.11Z"/><path class="cls-3" d="M100.17,299.67a63.21,63.21,0,0,1,14.94.1,58.05,58.05,0,0,0,7.23.16c2.36,0,4.71,0,7.07-.08,4.65-.07,9.32,0,14-.27a134.81,134.81,0,0,0,14.71-1.53c2.09-.34,4.22-.45,6.33-.59q5.85-.37,11.7-.65a3.34,3.34,0,0,1,1.78.37c5.16,3.23,10.33,6.45,15.41,9.8,3.89,2.57,7.68,5.3,11.51,7.95.32.22,4,2.48,4.34,2.7.1.06-33.59-18.62-37.57-17.78-27.7,5.87-71.28,2.46-70.92.94C100.74,300.49,100.37,300.09,100.17,299.67Z"/><path class="cls-5" d="M86.66,284a12.46,12.46,0,0,1-.18-2.33,1.94,1.94,0,0,1,.69-1.42c2.42-1.76,4.88-3.44,7.36-5.11a4.51,4.51,0,0,1,2.81-.45C94.09,277.74,87.65,282.68,86.66,284Z"/><path class="cls-2" d="M173.36,363.08a14,14,0,0,1,.54,1.46c1.75,6.83,3.57,13.65,5.18,20.51,1.23,5.24,2.2,10.54,3.27,15.82.29,1.43.18,1.63-1.24,1.68s-3-.09-4.47-.05c-1.75.05-2.52-1.36-3.13-2.46-.42-.77-1-1.46-1.39-2.23-1.49-2.84-3-5.67-4.57-8.44-1.27-2.23-2.71-4.35-4-6.56-1.47-2.5-2.84-5.06-4.29-7.57-.48-.84-1.09-1.62-1.61-2.44a7.08,7.08,0,0,1-.77-1.53,1.32,1.32,0,0,1,.62-1.73,11.85,11.85,0,0,1,1.37-.71c3.6-1.38,7.21-2.72,10.8-4.11C170.84,364.27,172,363.71,173.36,363.08Z"/><path class="cls-2" d="M99.72,387.69a6.09,6.09,0,0,1,3.35-2.55c1.7-.52,3.39-1.05,5-1.69,2.31-.9,4.62-.5,6.94-.16.79.12,1.56.4,2.35.55s4.71,3.36,5.4,3.92c1.61,1.28,3.35,2.39,4.93,3.7a75.22,75.22,0,0,1,8.19,7.26c.29.33.78.48,1.1.79a15.32,15.32,0,0,1,1.2,1.42c-1.84.9-3.5.28-5.12.28-3.1,0-6.19-.17-9.29-.31-2.06-.08-4.12-.17-6.17-.38a4.36,4.36,0,0,1-1.87-.77c-3.11-2-6.19-4.11-9.27-6.2-1-.64-1.85-1.34-2.75-2.05s-2-1.56-2.92-2.41A9.74,9.74,0,0,1,99.72,387.69Z"/><path class="cls-2" d="M145.21,383.44c3.08-1.68,6.16-.91,9.17-.53a14.39,14.39,0,0,1,3.33,1.26,5.17,5.17,0,0,0,1.08.48,4.22,4.22,0,0,1,3,2.38c2.23,3.93,4.39,7.9,6.59,11.85.39.7.84,1.36,1.27,2s.74,1.45-.08,2.23c-1.64-.08-3.41-.21-5.18-.23a5.42,5.42,0,0,1-3.71-2c-3.61-3.64-7.12-7.38-10.65-11.1-1.28-1.36-2.55-2.75-3.73-4.2A11.66,11.66,0,0,1,145.21,383.44Z"/><path class="cls-2" d="M126.06,384.41c3.86-2,9.77,0,12,.51a22.45,22.45,0,0,0,3,.67,1.35,1.35,0,0,1,.81.45A144.53,144.53,0,0,0,153,397.75c1.05,1,2,2.11,3,3.21.2.23.21.63.39,1.22-1.07,0-2,.12-2.91.11-1.82,0-3.65-.09-5.47-.13a4.49,4.49,0,0,1-3.57-1.55,64.08,64.08,0,0,0-5.09-5.07c-1.68-1.52-3.47-2.92-5.29-4.27-1.54-1.15-3.21-2.11-4.78-3.22a21,21,0,0,1-2.61-2.2A4.62,4.62,0,0,1,126.06,384.41Z"/><path class="cls-2" d="M174.38,353.09c-5-2.87-9.76-5.6-14.52-8.26a53,53,0,0,0-4.8-2.32,3.26,3.26,0,0,1-2.17-3.49,20.59,20.59,0,0,1,.87-5.41c.46-1.51,1.58-2.51,2.52-3.65a1.38,1.38,0,0,1,.94-.34c.8-.07,1.6,0,2.4-.08a2.22,2.22,0,0,1,2.27,1.43,32.86,32.86,0,0,0,3,4.43,58.85,58.85,0,0,1,5.93,9.67c1.14,2.12,2.11,4.34,3.13,6.52A11.92,11.92,0,0,1,174.38,353.09Z"/><path class="cls-2" d="M173.61,357.92c-1.76,1-3.48,2-5.23,2.9a14.34,14.34,0,0,1-1.77.66l-5.3,2c-1,.38-2,.79-3.07,1.12s-1.42.22-1.85-.86a9,9,0,0,1-.65-2.65,24.54,24.54,0,0,1,.71-8.36,4.84,4.84,0,0,1,.68-1.56,8.06,8.06,0,0,1,1.69-1.89c.94-.69,1.58.3,2.25.7,4.08,2.45,8.12,4.93,12.17,7.41C173.38,357.48,173.44,357.68,173.61,357.92Z"/><path class="cls-2" d="M173.73,342.38l-8.21-12.95a14,14,0,0,1,1.35-.36,7.7,7.7,0,0,1,1.36-.06,51.42,51.42,0,0,0,10.07-.75,6.56,6.56,0,0,1,1,0C179.42,330.65,175.83,339.72,173.73,342.38Z"/><path class="cls-3" d="M109,400.17l-7.64-.52c-.34,0-.68-.11-1-.11a2,2,0,0,1-2.38-1.8,8.25,8.25,0,0,1,.55-5.57c1.87,1.38,3.61,2.78,5.46,4a31,31,0,0,1,5.24,3.68Z"/><path class="cls-3" d="M188,399.83l-1.83-.63c0-.05-1.79-6.39-1.82-6.56-.21-1.07-.45-2.13-.66-3.2-.9-2.54,1.71-1.57,1.93-1.6C189,391.32,189.63,395.32,188,399.83Z"/><path class="cls-3" d="M154.38,382.91a14.39,14.39,0,0,1,3.33,1.26,5.17,5.17,0,0,0,1.08.48,4.22,4.22,0,0,1,3,2.38c2.23,3.93,4.39,7.9,6.59,11.85.39.7.84,1.36,1.27,2s.74,1.45-.08,2.23a19.68,19.68,0,0,1-2.21-.12c-1.06-.07-3.71.18-4.85-.64C169.09,398,158.05,387.35,154.38,382.91Z"/><path class="cls-3" d="M138,384.92a22.45,22.45,0,0,0,3,.67,1.35,1.35,0,0,1,.81.45A144.53,144.53,0,0,0,153,397.75c1.05,1,2,2.11,3,3.21.2.23.21.63.39,1.22-1.07,0-2,.12-2.91.11-1.21,0-5.7.27-7.47-.52C154.38,398.56,139.19,388.06,138,384.92Z"/><path class="cls-3" d="M111.58,382.91a29.44,29.44,0,0,1,3.47.38c.79.12,1.56.4,2.35.55s4.71,3.36,5.4,3.92c1.61,1.28,3.35,2.39,4.93,3.7a75.22,75.22,0,0,1,8.19,7.26c.29.33.78.48,1.1.79a15.32,15.32,0,0,1,1.2,1.42c-1.84.9-3.5.28-5.12.28-.86,0-13.35.87-15.46-.69C139.89,398.34,114.66,386.72,111.58,382.91Z"/><path class="cls-3" d="M173.61,357.92c-1.76,1-17.9-2.44-17.16-5.18a4.84,4.84,0,0,1,.68-1.56,8.06,8.06,0,0,1,1.69-1.89c.94-.69,1.58.3,2.25.7,4.08,2.45,8.12,4.93,12.17,7.41C173.38,357.48,173.44,357.68,173.61,357.92Z"/><path class="cls-3" d="M181.89,398.59l.46,2.28c.29,1.43.18,1.63-1.24,1.68s-3-.09-4.47-.05c-1.75.05-2.52-1.36-3.13-2.46C173.09,399.27,181.39,396.05,181.89,398.59Z"/><path class="cls-2" d="M175.12,193.58a65.32,65.32,0,0,1,10.06,11c5,6.49,7.8,14.05,10.67,22a10.06,10.06,0,0,1-1.52-.56c-2.36-1.3-4.72-2.59-7-4s-4.59-2.8-6.82-4.29a16.27,16.27,0,0,0-3.77-2.3,3.18,3.18,0,0,1-1.46-1.56,10.18,10.18,0,0,1-1.08-4.27c0-1.48-.37-3-.48-4.43A39.94,39.94,0,0,1,175.12,193.58Z"/><path class="cls-2" d="M190.57,251.19a41.29,41.29,0,0,0,.75,4.86c.69,2.48-.69,4.35-1.69,6.26-1.44,2.73-3.16,5.32-4.81,7.94-1.1,1.74-2.33,3.41-3.42,5.16-1.27,2-2.47,4.11-3.67,6.18-.37.64-.62,1.35-.95,2-.53,1-1.36,1.21-2.2.4a3.71,3.71,0,0,1-.93-1.23,20.7,20.7,0,0,1-1.66-7.34c0-.93-.16-4.82.49-5.63a72.43,72.43,0,0,1,8.75-9.19,34.21,34.21,0,0,0,5.71-5.7c1-1.3,2.13-2.53,3.2-3.79Z"/><path class="cls-2" d="M173.34,251.15c-1.36-4-1.82-8,0-11.94a2.15,2.15,0,0,1,2.24-1.47,30.32,30.32,0,0,0,8.68-1.15c2.13-.59,4.39-.78,6.36-2a1,1,0,0,1,1.53.61,50.31,50.31,0,0,1,1.24,5c.43,2.29-.16,3.83-2.6,5a64.07,64.07,0,0,1-8.78,3.47c-2.64.79-5.26,1.63-7.89,2.44A4,4,0,0,1,173.34,251.15Z"/><path class="cls-2" d="M183.35,278.88c2.28,1.21,4.22,2.31,6.23,3.28s4.17,1.9,6.28,2.8,4.14,1.69,6.21,2.55,4.35.9,6.28,2.45c-1.51,1.06-2.77,2.12-4.48,2.41a3.5,3.5,0,0,0-1,.36c-3.66,1.83-7.49,1.8-11.38,1a25.71,25.71,0,0,1-8.14-3.18c-1-.62-2.12-1.17-3.14-1.8-.67-.42-1.28-.92-2-1.43Z"/><path class="cls-2" d="M203.12,275.08c2.3-1.83,3.36-5.19,6.46-4.21.77.25,2.78,9.76,3,10.43.26.94.45,1.9.68,2.85s.46,1.87.77,3.11c-9.78-3.25-19.45-6.2-28.43-11.57.55-2,2.13-3.4,3.3-5.06a24.59,24.59,0,0,0,3.08.49,27.22,27.22,0,0,0,3.24-.2,8.45,8.45,0,0,0,2.7-.31c1.2-.54,1.64.18,2.47.95,0,1.81-.57,3-4.19,6C197.4,279,201.89,276.26,203.12,275.08Z"/><path class="cls-2" d="M176.33,219.48c6,2.62,11,7,17,10a16.33,16.33,0,0,1-6,2.91c-3.16.81-6.38,1.38-9.57,2a8.74,8.74,0,0,1-1.54.07,1.29,1.29,0,0,1-1.3-.9,14.89,14.89,0,0,1-.91-8.24,1.14,1.14,0,0,1,.31-.54c.39-.42.8-.82,1.22-1.21C177,222.24,177.24,221.12,176.33,219.48Z"/><path class="cls-2" d="M184,197.35c1.84-.83,3.42-1.56,5-2.25s3.12-1.34,4.67-2c2.76,3.86,3.71,18.26,1.8,22.11A70.25,70.25,0,0,0,184,197.35Z"/><path class="cls-2" d="M215.29,265.49c2.74-3.24,7.38-3.7,9.84-.27a7,7,0,0,1,.94,7.12c-.48,1.14-1,2.26-1.5,3.36C221.29,274.58,216.58,269.32,215.29,265.49Z"/><path class="cls-2" d="M191.23,189.69c-3,1.35-5.92,2.66-8.84,3.92a1.91,1.91,0,0,1-2.36-.41c-.69-.75-1.53-1.37-2.2-2.15a1.21,1.21,0,0,1,.32-2,39,39,0,0,1,3.34-2,7,7,0,0,1,9,1.77C190.72,189,190.92,189.3,191.23,189.69Z"/><path class="cls-2" d="M172.2,264.47a19.54,19.54,0,0,1,2.27-9.36,2.33,2.33,0,0,1,1.11-1c3-1,6-1.94,9-2.88a5.14,5.14,0,0,1,1,0,64.55,64.55,0,0,1-4.51,5.09c-2.83,2.59-5.85,5-8.31,7.93C172.72,264.29,172.58,264.31,172.2,264.47Z"/><path class="cls-2" d="M202,267.52c-2.12-2.59-4.17-5-5.11-8.15.53-.46,1.11-1,1.72-1.47a2.32,2.32,0,0,1,2.58-.15,4.82,4.82,0,0,1,2.44,2.78C204.18,262.23,203.36,265.78,202,267.52Z"/><path class="cls-2" d="M222.45,279.64a26.82,26.82,0,0,1-4.57,6.59c-.38-1.47-.72-2.64-1-3.83-.36-1.56-.69-3.12-1-4.69a14,14,0,0,1-.44-2.66c1.71.24,2.29,1.67,3.42,2.33S221.14,278.82,222.45,279.64Z"/><path class="cls-3" d="M196.61,267.34H191.2a13.68,13.68,0,0,1,2.56-4.46C194.72,264.37,195.56,265.69,196.61,267.34Z"/><path class="cls-3" d="M176.33,219.48c6,2.62,11,7,17,10-1.95,1.5-19.15-4.52-19-4.67.39-.42.8-.82,1.22-1.21C177,222.24,177.24,221.12,176.33,219.48Z"/><path class="cls-3" d="M172.63,260.23a17.26,17.26,0,0,1,1.84-5.12,2.33,2.33,0,0,1,1.11-1c3-1,6-1.94,9-2.88a5.14,5.14,0,0,1,1,0c-.72.82-1.37,1.62-2,2.38C182.77,254.56,178.25,255.07,172.63,260.23Z"/><path class="cls-3" d="M183.35,278.88l2.67,1.44c-1.14,2.15-4.75,9.09-5.77,8.46-.67-.42-1.28-.92-2-1.43Z"/><path class="cls-3" d="M203.12,275.08c2.3-1.83,3.36-5.19,6.46-4.21.77.25,2.78,9.76,3,10.43.26.94.45,1.9.68,2.85s.46,1.87.77,3.11c-9.78-3.25-19.45-6.2-28.43-11.57.55-2,2.13-3.4,3.3-5.06a24.59,24.59,0,0,0,3.08.49,27.22,27.22,0,0,0,3.24-.2,8.45,8.45,0,0,0,2.7-.31c1.2-.54,1.64.18,2.47.95,0,1.81-.57,3-4.19,6C197.4,279,201.89,276.26,203.12,275.08Z"/><path class="cls-2" d="M207.11,275.05c-1.88,2.11-7.77,4.23-6.43,4.94s6.87,2.51,7.67,2.74S208.91,273,207.11,275.05Z"/><path class="cls-2" d="M188.43,274.92c-1.39-.67.75-1.89,4.89-2.07s5.14,0,3.54,2S192.68,277,188.43,274.92Z"/><path class="cls-3" d="M184,197.35l2.41-1.09c.89-.4,11,15.11,9.08,19A70.25,70.25,0,0,0,184,197.35Z"/><path class="cls-3" d="M182.39,193.61a1.91,1.91,0,0,1-2.36-.41c-.69-.75-1.53-1.37-2.2-2.15a1.21,1.21,0,0,1,.32-2c.95-.62,3.64,2.36,5.41,4.07C183.45,193.34,182.76,193.46,182.39,193.61Z"/><path class="cls-3" d="M183.6,318.24c25.56-4.84,31.91-5.1,51.4-38,16.12-27.27,14.71-49.14-5.64-70.15-2.48-2.54-3-11.85,4.65-14.21-8.43-44.64-18.44-98.14-60.34-118.51,0,0-12.66-5-9,3.82,7.29,17.62,10.16,58.74,17.08,77.74,3.8,10.45,7.84,16.58,12.29,28.38,7.5,17.94,1.49,27.94-.47,66.1-.53,4.79,4.66,2.46,9.56,2,5.15-.51.39,12.34,4.67,12,5.34-.42,8.82-6.7,12.94-6.18,13.92,1.77,6.49,22.38-6.73,29.06-3.71,1.88-17.15,7.21-24.48,7-3.27,6.54-7.77,13.69-44.31,23C145.21,320.25,177.22,319.45,183.6,318.24Z"/><path class="cls-5" d="M76.56,218.32c-.07-3.16,0-6.32.23-9.48a8.78,8.78,0,0,1,1.95-5.44,16.44,16.44,0,0,1,2.21.17,44.22,44.22,0,0,0,15.73,0c3.8-.6,7.6-1.17,11.36-1.91a19.08,19.08,0,0,0,4.36-1.56c3.11-1.48,6.15-3.09,9.22-4.64a8.17,8.17,0,0,1,3.95-1,9.58,9.58,0,0,0,3.21-.58c2.42-.84,6.72-5.53,9.26-5.63,4.87-.2,13-3.34,17.87-3.14C147.27,194.71,118.13,215.22,76.56,218.32Z"/><path class="cls-5" d="M153.34,335.3c2.31,5.36,17.79,10.81,20.39,7.08s4.88-7.48,5.56-14.13c-7.3,0-19.93.11-23,1.71S153.34,335.3,153.34,335.3Z"/><path class="cls-5" d="M232.06,278.93c3.35-5.7,4.48-16.73-3.85-21.5-4.2-2.4-13.9.71-17,5.05-2.89,2.27,1.67-5.49-3.38-9.54-2.27-1.81-2.91-5.94-2.37-8.81,1.15-6.1-3.41-16.83-1-16.16,6.16,1.74-2.59-25.11-7.11-34.39a59.08,59.08,0,0,1,2,9.28c.74,4.69-1.1,10.16-2.27,16.93a285.08,285.08,0,0,0-3.46,33.59c-.53,4.79,4.66,2.46,9.56,2,5.15-.51.39,12.34,4.67,12,5.34-.42,8.82-6.7,12.94-6.18,13.92,1.77,6.49,22.38-6.73,29.06-3.71,1.88-17.15,7.21-24.48,7,23.35,0,13.6,5.61,25.37,1.86C219.79,297.56,225.05,290.84,232.06,278.93Z"/><path class="cls-3" d="M186,189c10.5,4.62,6.78,27.59,2,46.85s2.78,24.33,2.78,24.33l-6,10.11c-4.68-11.58-3.33-23.69-2-29.49C188.62,215.18,187.16,193,186,189Z"/><path class="cls-1" d="M82.49,233.52c-.33-.08-.45-.16-.55-.13-2.51.59-3.91-1-5.15-2.73A17.15,17.15,0,0,1,74.16,224a28,28,0,0,1-.55-9.58c.22-1.53,0-3.13.23-4.65.35-2.14,1-4.24,1.47-6.35.08-.34.12-.68.21-1.19L71,200a5.15,5.15,0,0,0-2.64,2.27,1.94,1.94,0,0,1-2.11,1.2c-1.75-.23-3.5-.52-5.25-.8-4.53-.72-8.4-2.88-12.17-5.37a38.18,38.18,0,0,1-10.45-10.82,44.57,44.57,0,0,1-2.31-4.29c-.49.45-1,.82-1.37,1.26a3,3,0,0,1-4,.51,4.3,4.3,0,0,0-.6-.32c-3.79-1.61-6.49-4.45-8.81-7.75a85.71,85.71,0,0,1-7.49-12.51,46.3,46.3,0,0,1-2.29-7.19,2.75,2.75,0,0,1,.1-1.7,2,2,0,0,0-.09-1.75q-2.12-5.43-4.12-10.89a135.26,135.26,0,0,1-4.51-15c-1-4.13-1.61-8.32-2.19-12.52A86.86,86.86,0,0,1,.14,97.86c.2-4,.72-7.88,1.3-11.8A37.29,37.29,0,0,1,4.66,75.57c.41-.87.42-.87-.3-2.07L2.62,74.57A12.1,12.1,0,0,1,1.1,73.42,2.54,2.54,0,0,1,.26,71c.38-1.43.75-2.87,1.15-4.29q1-3.64,2.12-7.28a7.94,7.94,0,0,1,.76-1.91c2-3.24,4.11-6.46,6.18-9.69.12-.2.26-.38.36-.59,1.85-4,4.76-7.14,7.59-10.39A28.81,28.81,0,0,1,24,31.47c1.09-.73,2.27-1.34,3.37-2,.37-.23.86-.58.91-.93.27-2,1.53-3.28,2.79-4.62,1.46-1.54,2.9-3.1,4.33-4.66a19.59,19.59,0,0,1,5.68-4.13c1.47-.75,3-1.31,4.55-2,.87-.37,1.63-.86,1.73-1.93A4.26,4.26,0,0,1,48.79,8.7C52.84,4.48,58,2.45,63.52.93A28.56,28.56,0,0,1,77.27.75c1,.21,2,.33,3,.46a6.83,6.83,0,0,1,4.64,2.34,21.77,21.77,0,0,0,2,1.87,6.5,6.5,0,0,1,3.65-2.09A35,35,0,0,1,101,2c1,0,1.94.2,2.9.32a45.21,45.21,0,0,1,16.55,5.43c2.39,1.34,5,2.35,7.45,3.55a87,87,0,0,1,9.21,4.85,31.56,31.56,0,0,1,5,4.08c1,1,2.16,1.67,3.22,2.54a16.67,16.67,0,0,1,1.34,1.32,30.09,30.09,0,0,1,5.65,8,11.82,11.82,0,0,1,.84,3.32c.31,1.86.58,3.72.75,5.59a10.14,10.14,0,0,1-.09,3.21,2.18,2.18,0,0,0,.08,1.59c2.19,4.68,4.35,9.37,6.52,14,.94,2,1.89,4.06,2.8,6.1a1.63,1.63,0,0,0,1.65,1,43.12,43.12,0,0,1,19.34,5.5c4,2.25,8,4.55,11.28,7.82,2.92,2.91,5.65,6,8.45,9,2,2.1,3.92,4.18,5.82,6.33,1.32,1.49,2.55,3.07,3.8,4.63,3,3.39,7.89,3.09,14.34,12.65a22.92,22.92,0,0,1,2,3.58c1.42,3.25,3.32,6.31,4.17,9.8s1.68,7,2.46,10.56c.54,2.45,1.1,4.91,1.43,7.39a61.16,61.16,0,0,1,.26,11.48,3.14,3.14,0,0,0,.72,2.19,21.53,21.53,0,0,1,2.58,4.25,9.45,9.45,0,0,1,.7,4,13.79,13.79,0,0,0,.78,5.49,17.36,17.36,0,0,1,.28,9.69c-.15.72-.3,1.45-.46,2.25l2.1,1.16a7.24,7.24,0,0,1,4,6.69c0,1.31-.3,2.62-.42,3.93a17.53,17.53,0,0,0-.16,3.23c.09.89-.14,1.5-.92,1.78-1.72.63-3.46,1.18-5.2,1.72-1.53.47-3.07.89-5,1.45a30,30,0,0,0,3.19,3,42.5,42.5,0,0,1,6.33,6,4.8,4.8,0,0,0,1.74,1.32,5.86,5.86,0,0,1,2.78,2.46,20,20,0,0,1,2.58,6.14,27.23,27.23,0,0,1,1.19,11c-.49,3.74.11,7.39.7,11.06a7.05,7.05,0,0,1,.11,1c.07,2.52.21,5.05.18,7.58a28.51,28.51,0,0,1-2.39,11.87,25,25,0,0,1-1.69,2.7,26.57,26.57,0,0,0-2.15,5.08A56.19,56.19,0,0,1,248,280c-1.34,3.73-3.61,7-5.88,10.36-.72,1.16-1.9,4.51-2.25,5.18a89,89,0,0,1-7.39,11.95c-1.61,2.21-3.42,4.29-5.24,6.34a20.51,20.51,0,0,1-8,5.44c-1,.37-1.91.78-2.86,1.19s-1.77.81-2.72,0c-.43-.35-.92-.17-1.44.09a36.78,36.78,0,0,1-4.86,2.14c-3.17,1-6.37,2-9.61,2.68-3.74.84-7.54,1.42-11.31,2.07-1,.16-1.94.18-3.06.27-.37,1.47-.63,3-1.13,4.43a66.1,66.1,0,0,1-5.09,12.16c-.17.3-.34.6-.53.89a3.16,3.16,0,0,0-.12,3.4,44.78,44.78,0,0,1,2.08,5.44,17.57,17.57,0,0,1,.54,3.7c.08,1.07-.27,1.36-1.8,1.88a3.65,3.65,0,0,0-.15,2.81c.72,2.72,1.27,5.49,2.13,8.16a80.1,80.1,0,0,1,2.08,8.45,2.89,2.89,0,0,0,1.56,2.1c.76.4,1.52.79,2.27,1.2a15.64,15.64,0,0,1,4.76,4.34c2.07,2.62,2.37,5.73,2.84,8.76.25,1.63-.28,3.39-.5,5.08a8.65,8.65,0,0,1-.45,1.82c-.29.79-4.22,4.23-6.51,4.18-1.05.05-87.15-3.09-87.63-3.47a12.24,12.24,0,0,1-2.73-3.25,9.5,9.5,0,0,1-.79-7.49,25.86,25.86,0,0,1,.92-2.49c0-.08-.16-.28-.28-.47-1-1.57-.82-1.74.38-3,3.45-3.76,8-5.37,12.74-6.38a17.47,17.47,0,0,1,12,1.51,1.66,1.66,0,0,0,1.74.18,20.6,20.6,0,0,1,13.59-1.39c1.55.31,3.08.74,4.86,1.18l3.08-2a6.07,6.07,0,0,1,3.42-1c3,0,6-.07,8.88.83a1.2,1.2,0,0,0,.5,0c.21,0,.42-.06.83-.12-.64-1.24-1.17-2.37-1.8-3.43a24.65,24.65,0,0,1-3.34-7.3c-.28-1.31-.87-2.64.2-3.92.18-.22.06-.76,0-1.13-1.22-5.66,0-10.93,2.56-16,.05-.09,0-.22,0-.33-1.85.44-2.43.13-3.36-1.52a10.38,10.38,0,0,0-1.6-2c-.76-.79.47-4.47.49-5.66a16.75,16.75,0,0,1,1.42-6.17c.24-.57.36-1.18.58-1.91a7.79,7.79,0,0,0-1.26-.22,58.75,58.75,0,0,1-14.28-1.91,77.84,77.84,0,0,1-7.81-2.17,60.45,60.45,0,0,1-6.29-2.78,79,79,0,0,1-15-9.63c-2.41-1.92-4.47-4.26-6.7-6.4a15.19,15.19,0,0,1-3.44-4.48,2.1,2.1,0,0,0-1-1c-2.42-1-4.1-2.9-5.74-4.83a26.79,26.79,0,0,1-4.69-7c-.57-1.37-.75-2.94-1.5-4.19s-2-2-2.89-3.08a30.23,30.23,0,0,1-4.69-9.14,34,34,0,0,1-1.55-10.33c0-2.75-.29-5.52.63-8.21.1-.3.74-6.46,1-8.28A35,35,0,0,1,80,237,16.57,16.57,0,0,1,82,234.37C82.12,234.15,82.25,233.9,82.49,233.52ZM151,98a2.49,2.49,0,0,0,.12-.83c-.75-3.12-1.53-6.23-2.28-9.35a1.63,1.63,0,0,0-1.19-1.29c-2.53-.92-5-2-7.53-2.93-5-1.88-10-3.6-15-5.6-6.36-2.57-12.63-5.35-18.93-8-1.32-.56-2.66-1.07-4-1.67-2.34-1.08-4.63-2.26-7-3.31-3.07-1.36-6.18-2.62-9.28-3.92-.58-.24-1.19-.41-1.75-.68-3.45-1.7-6.88-3.43-10.32-5.13-3.84-1.91-7.71-3.77-11.54-5.69-2.65-1.33-5.25-2.74-7.9-4.06-1.16-.57-2.41-.94-3.58-1.49s-2.23-1.16-3.33-1.77c-1.84-1-3.66-2.08-5.49-3.13-1.34-.77-2.67-1.56-4-2.3-1.05-.57-2.15-1.06-3.19-1.64-1.59-.89-3.14-1.88-4.75-2.72a1.65,1.65,0,0,0-1.44,0,30.84,30.84,0,0,0-6.82,6.43c-1.71,2.41-3.44,4.8-5.22,7.17-1.55,2.07-3.18,4.09-4.76,6.15a3.7,3.7,0,0,0-.71,1.16c-.44,1.72-1.49,3.14-2.18,4.73A44.29,44.29,0,0,0,5.41,68.83c-.15,1,0,1.31,1,1.51,2.28.46,4.54,1.09,6.82,1.59,2.5.56,5,1.08,7.51,1.58,2.74.55,5.53.88,8.22,1.62,6.85,1.91,13.86,3.06,20.83,4.45,4.93,1,9.91,1.71,14.86,2.61,3.83.7,7.65,1.5,11.47,2.24,2.6.49,5.19,1,7.79,1.42,5.6.92,11.2,1.78,16.8,2.69,3.84.63,7.68,1.3,11.52,1.95,3.17.53,6.34,1,9.51,1.59s6.53,1.17,9.8,1.76c2.7.49,5.42.9,8.1,1.5,2,.44,3.94,1.2,5.94,1.68C147.31,97.44,149.11,97.67,151,98Zm-9.76.94a15.06,15.06,0,0,1-2.11,1.48c-3.77,1.7-7.57,3.32-11.34,5-4.48,2-8.92,4.16-13.41,6.18-1.82.82-3.75,1.41-5.58,2.22a79.12,79.12,0,0,1-7.79,3.51c-4,1.29-8,2.72-12,4.19-2,.74-3.87,1.74-5.82,2.56-3.17,1.33-6.39,2.54-9.53,3.91-3.68,1.6-7.28,3.35-10.94,5-3.92,1.76-7.86,3.47-11.8,5.17s-8.14,3.45-12.19,5.19c-2.69,1.16-5.44,2.21-8,3.57-4.62,2.42-9.14,5-13.68,7.58a2.7,2.7,0,0,0-1.57,2.65,18.15,18.15,0,0,0,1.43,4.93c1.31,2.67,2.89,5.21,4.41,7.77.87,1.47,1.79,2.92,2.79,4.3,1.74,2.4,3.31,5,6.13,6.37a1.7,1.7,0,0,0,2,0c2.58-1.72,5.23-3.33,7.86-5,1.56-1,3.15-1.89,4.72-2.84,2.46-1.48,4.9-3,7.37-4.45,3.4-2,6.89-3.91,10.2-6.06,5-3.22,10.14-6.1,15.35-8.89,3.74-2,7.51-4,11.21-6,4.47-2.49,8.88-5.09,13.35-7.58,1.8-1,3.72-1.79,5.53-2.78,5.42-3,10.78-6.1,16.24-9,4.34-2.34,8.75-4.56,13.19-6.71a82.44,82.44,0,0,0,11.6-6.77,15.11,15.11,0,0,1,2.83-1.59c1.43-.6,1.69-.92,1.5-2.42-.24-1.94-.4-3.88-.67-5.81-.15-1.11-.46-2.2-.71-3.37Zm29.87,94.38a3.83,3.83,0,0,0-.63-.16c-3.27-.16-6.54-.3-9.81-.48s-6.53-.43-9.79-.56c-4.89-.2-9.75.41-14.62.6a25.65,25.65,0,0,0-7.44,1.18,9.58,9.58,0,0,1-3.21.58,8.17,8.17,0,0,0-3.95,1c-3.07,1.55-6.11,3.16-9.22,4.64a19.08,19.08,0,0,1-4.36,1.56c-3.76.74-7.56,1.31-11.36,1.91a44.22,44.22,0,0,1-15.73,0,16.44,16.44,0,0,0-2.21-.17,8.78,8.78,0,0,0-1.95,5.44c-.19,3.16-.3,6.32-.23,9.48a20,20,0,0,0,2.14,9c.53,1,1.14,2,1.8,3.15,1.41-.25,2.87-.49,4.33-.76,3.09-.57,6.18-1.2,9.28-1.7,1.7-.27,3.43-.3,5.13-.51,3.25-.38,6.5-.77,9.73-1.25q6.89-1,13.76-2.15c2.94-.49,5.86-1.12,8.79-1.65,1.75-.31,3.51-.54,5.27-.83,3.9-.64,7.8-1.32,11.71-1.93,2.83-.44,5.7-.7,8.52-1.2,3.83-.67,7.65-1.48,11.47-2.26,1.1-.22,2.19-.54,3.38-.84C169.37,208,170.08,200.73,171.07,193.32Zm-70.9,106.35c.2.42.57.82.5,1.12-.36,1.52.75,2.32,1.52,3.28.36.44.82.8,1.2,1.23a45.49,45.49,0,0,0,7.38,6.69,84,84,0,0,0,14.75,8.78,76.15,76.15,0,0,0,12.08,3.88,55,55,0,0,0,7.1,1.28c1.87.24,3.78.2,5.66.33,1.58.1,22-.74,34.25-1.89,1.81-.24,3.63-.48,5.43-.83,2.3-.45,4.56-1.06,6.86-1.5a40.83,40.83,0,0,0,8.87-2.72c1.06-.47,2.07-1,3.39-1.69-1.34-.8-2.4-1.37-3.38-2-4.17-2.86-8.26-5.83-12.47-8.61-5.08-3.35-10.25-6.57-15.41-9.8a3.34,3.34,0,0,0-1.78-.37q-5.85.27-11.7.65c-2.11.14-4.24.25-6.33.59a134.81,134.81,0,0,1-14.71,1.53c-4.65.24-9.32.2-14,.27-2.36,0-4.71.08-7.07.08a58.05,58.05,0,0,1-7.23-.16A63.21,63.21,0,0,0,100.17,299.67Zm51.74-132a7.84,7.84,0,0,0,1-.2c3.68-1.44,7.37-2.86,11.05-4.32a33.51,33.51,0,0,1,11-2.36c1,0,2,0,3.13,0,0-.59,0-1-.09-1.37-.31-2-.66-3.95-1-5.94-.38-2.55-.64-5.12-1.1-7.66-.86-4.74-2-9.43-2.72-14.18-.84-5.37-1.39-10.79-2.1-16.19-.44-3.35-.88-6.71-1.45-10q-1.41-8.13-3-16.2c-.55-2.7-1.32-5.35-2-8-.42-1.6-.9-3.19-1.4-4.77s-1-3.4-1.69-5c-1.22-3-2.59-5.88-3.86-8.84a99.67,99.67,0,0,0-7.28-14.81,2.71,2.71,0,0,0-2.8-1.5,25.85,25.85,0,0,1-9.87-.61c-.08,0-.2.08-.3.13a2.78,2.78,0,0,0,.55,2.19c.9,1.45,1.86,2.89,2.61,4.42,1,2.1,1.92,4.28,2.8,6.45,1.36,3.35,2.81,6.66,3.94,10.08,1.22,3.7,2.08,7.51,3.15,11.26.52,1.8.85,3.67,2.05,5.24a4.23,4.23,0,0,1,.36,1.94,26.4,26.4,0,0,0,.19,2.68c.42,2,1.07,4,1.4,6,.63,3.79,1.1,7.6,1.62,11.41.12.85.19,1.71.27,2.56.34,3.6.91,7.19,1,10.79.09,5.17-.16,10.35-.31,15.52a45.65,45.65,0,0,1-.42,5c-.32,2.33-.78,4.64-1.16,7-.17,1.07-2,12.94-2.41,14.74C152.74,164.42,152.35,165.88,151.91,167.64Zm19.68,51.45a2.68,2.68,0,0,0-.63,0q-5.64,1.11-11.28,2.26c-1.29.26-2.58.6-3.88.79-8.11,1.2-16.23,2.35-24.35,3.54a13.41,13.41,0,0,0-6,1.88,51.74,51.74,0,0,1-8.1,4.27c-2.6,1.2-5.2,2.42-7.73,3.74-4.58,2.4-9.06,4.95-13.65,7.3-4.29,2.21-8.54,4.47-12.69,6.94a9.74,9.74,0,0,0-4.73,7.91,53.43,53.43,0,0,0-.11,7.38A24.86,24.86,0,0,0,82.31,278c.75,1.15,1,1.26,2,.46,3.58-2.88,7.47-5.33,11.3-7.85,3.41-2.23,6.94-4.28,10.32-6.56,4.61-3.11,9.12-6.39,13.71-9.54,4.16-2.86,8.38-5.63,12.57-8.43,1.1-.73,2.25-1.39,3.32-2.15,1.74-1.21,3.36-2.6,5.16-3.7,2.3-1.4,4.76-2.54,7.08-3.89,1.83-1.06,3.49-2.44,5.36-3.39,3.34-1.7,6.16-4.18,9.41-6a42.51,42.51,0,0,1,4.77-2.7C169.64,223.26,171.41,222,171.59,219.09ZM54.82,170.8a7.19,7.19,0,0,0,1.52.77,153.56,153.56,0,0,1,15.37,3.73c5.81,1.77,11.73,3.21,17.5,5.08,2.07.66,4.44.46,6.22,2,5.16,2.06,10.3,4.1,15.95,4.57a107.15,107.15,0,0,1,11.39,1.7c1.56.3,3.35.32,4.47,1.77,6.18-.93,11.73-4.12,17.29-9.44a12.44,12.44,0,0,0,3.52-4.51c-2.33-1-4.47-2-6.65-2.85-2-.82-4.08-1.5-6.08-2.34q-6.51-2.73-13-5.58c-4.36-1.92-8.78-3.73-13-5.94-3.47-1.83-7.12-3.2-10.7-4.73-2.79-1.19-5.71-2.07-8.54-3.15a3.12,3.12,0,0,0-2.93.29c-2.08,1.23-4.17,2.44-6.34,3.49a146.24,146.24,0,0,0-15.13,8.44c-2.46,1.57-5,3.09-7.45,4.62C57.2,169.38,56.13,170,54.82,170.8Zm68.62,85.31a8,8,0,0,0,.9.95c1.84,1.26,3.69,2.53,5.57,3.75,3.08,2,6.25,3.87,9.27,5.95,2.41,1.66,4.67,3.53,7,5.32,7,5.42,14.61,10,22,14.85,5.8,3.84,11.65,7.62,17.62,11.19s11.43,7.5,17.16,11.23a91.69,91.69,0,0,0,10.72,6.5c2.21-1,4.49-2,6.79-3a2.36,2.36,0,0,1,1.18-.11,2.05,2.05,0,0,0,1.94-.84c2-2.43,4.19-4.76,6-7.35,2.19-3.21,4.06-6.65,6-10a3.48,3.48,0,0,0-1.08-3.77c-1.24-.73-2.54-1.36-3.77-2.09-2.21-1.3-4.39-2.65-6.57-4-1.71,2.1-3.51,4.11-5.07,6.29a31.6,31.6,0,0,1-3.95,4.29c-1.67,1.63-4.68,2.21-6.58.72a.8.8,0,0,0-.59-.13,33.07,33.07,0,0,0-5.56,1,21.59,21.59,0,0,1-7.47.94,24.86,24.86,0,0,1-12.16-3.28c-2.15-1.21-4.17-2.63-6.26-3.94-.82-.51-1.69-.94-2.52-1.45a2.67,2.67,0,0,1-.65-.65,10,10,0,0,0-.55-.83,15.86,15.86,0,0,1-4.46-8.72,34.16,34.16,0,0,1-.22-11c.45-2.66.63-5.35,1-8a1.26,1.26,0,0,0-1-1.55c-.81-.28-1.63-.56-2.42-.9-6.61-2.81-13.21-5.65-19.83-8.43-2.32-1-4.72-1.77-6.81-3.49ZM169.52,83.83l-.35.28c.22,1.11.43,2.21.65,3.31.36,1.86.74,3.72,1.07,5.58.49,2.82.93,5.65,1.46,8.47a2.72,2.72,0,0,0,.84,1.43,29.87,29.87,0,0,0,2.62,2c3.26,2.34,6.58,4.59,9.76,7,1.82,1.38,3.37,3.1,5.09,4.61,2.28,2,4.64,3.92,6.92,5.92,5,4.34,9.85,8.75,14.44,13.49,2.14,2.21,4.37,4.37,6.66,6.43,1.58,1.42,3.35,2.6,5,3.93,3,2.44,6,4.93,9.08,7.36a11.38,11.38,0,0,0,1.72.89,50.48,50.48,0,0,0,.17-6.85,55.36,55.36,0,0,0-1.89-10.82c-.34-1.09-.52-2.23-.78-3.34a55.37,55.37,0,0,0-10.37-23,3.69,3.69,0,0,0-1.3-1.06c-4.71-2.09-9.45-4.12-14.17-6.19-1.89-.83-3.8-1.61-5.63-2.55-2.45-1.25-4.82-2.67-7.25-4-2.72-1.46-5.5-2.8-8.2-4.3-4.45-2.47-8.85-5-13.29-7.53C171,84.54,170.27,84.2,169.52,83.83ZM62.25,23a2.63,2.63,0,0,0,1,1.84c.75.7,1.53,1.38,2.22,2.13,2.35,2.58,4.64,5.19,7,7.77,1,1.1,2.14,2.07,3.1,3.2,3.91,4.65,7.71,9.38,11.69,14,1.2,1.38,2,3.41,4.21,3.66.18,0,.35.29.49.47a20,20,0,0,1,1.5,2.09,6.84,6.84,0,0,0,4.18,3.5c6.19,1.91,12.28,4.14,18.46,6.07,3.16,1,6.44,1.62,9.68,2.34,2.68.6,5.39,1.07,8.07,1.67s5.44,1.38,8.17,2a15,15,0,0,0,2.79,0c-.52-1.75-.94-3.34-1.48-4.89-.89-2.54-2-5-2.77-7.58C139,55.66,135.76,51,132.83,46.26a6.07,6.07,0,0,0-4.26-2.9c-2.37-.41-4.72-.91-7.08-1.34-3.47-.63-7-1.21-10.43-1.88-2-.38-4-1-6-1.31a72.44,72.44,0,0,1-9.63-2.5c-1.26-.38-2.5-.87-3.78-1.12a69.32,69.32,0,0,1-13.48-4.58C74.3,29,70.54,27.05,66.73,25.22,65.3,24.53,63.89,23.78,62.25,23ZM149.7,37.64l.08,0c-.1-.56-.21-1.12-.3-1.68-.5-3.12-2.43-5.52-4.1-8a2.52,2.52,0,0,0-2.32-1.2c-2.2,0-4.41-.14-6.61-.16a98.08,98.08,0,0,1-14-1.18c-2.25-.35-4.49-.82-6.72-1.32-1.82-.41-3.62-.92-5.43-1.42a28.7,28.7,0,0,1-4.11-1.25c-3-1.35-6-2.74-8.94-4.33A60.64,60.64,0,0,1,83.88,7.45,6.41,6.41,0,0,0,80.5,5.52c-2.57-.46-5.1-1.12-7.73-1.34a28.14,28.14,0,0,0-6,.27,35,35,0,0,0-8.34,2.46,18.57,18.57,0,0,0-5.54,3.35c-.91.8-.88,1.54.11,2.19s1.84,1.15,2.77,1.72c3.37,2.07,6.71,4.19,10.11,6.19,2.37,1.38,4.78,2.7,7.25,3.88,3.52,1.67,7,3.36,10.7,4.71s7.5,2.38,11.29,3.45,7.51,2.09,11.31,2.94c5.36,1.21,10.75,2.27,16.13,3.34,2.53.5,5.09.84,7.62,1.34,3.2.63,6.48.61,9.65,1.55a14.75,14.75,0,0,0,6.11.5c2.78-.38,3.62-1.29,3.72-4.09C149.71,37.87,149.7,37.75,149.7,37.64Zm23,256.32c-.56-.41-.82-.62-1.1-.8-4.87-3.17-9.73-6.34-14.61-9.46a5.59,5.59,0,0,0-1.93-.66c-2.19-.43-4.4-.77-6.59-1.22-2-.4-3.9-.95-5.88-1.32-3.61-.66-7.24-1.19-10.85-1.85-3.95-.73-7.87-1.55-11.81-2.31-1.64-.32-3.27-.65-4.92-.88a63.67,63.67,0,0,0-7-.81c-4-.12-8.06,0-12.08,0a2.89,2.89,0,0,0-1.43.44c-2.48,1.67-4.94,3.35-7.36,5.11a1.94,1.94,0,0,0-.69,1.42,18.82,18.82,0,0,0,.64,4.58c1.17,3.63,3.65,6.47,6.07,9.31a5.85,5.85,0,0,0,1.46.86c0-1,.54-1.16,1.26-.94a2.46,2.46,0,0,1,1.09.47,3.34,3.34,0,0,0,3.16.86,129.54,129.54,0,0,1,15.64,0c5.23.13,10.46.06,15.69,0,2.7,0,5.41-.41,8.09-.19a54.48,54.48,0,0,0,8.19-.28c2.46-.16,4.89-.72,7.35-.87s4.92-.86,7.46-.86c3,0,6.07-.31,9.1-.49C171.9,294.07,172.12,294,172.72,294Zm-19.29-178.8c-1.93,1.33-3.47,2.38-5,3.45-.9.63-1.73,1.36-2.67,1.89-2.14,1.2-4.33,2.33-6.5,3.47q-2.67,1.4-5.36,2.74c-3.12,1.58-6.29,3.08-9.37,4.74-4.37,2.36-8.66,4.88-13,7.26-5.08,2.77-10.21,5.46-15.3,8.22-1,.57-2,1.31-3.3,2.16,2.07.82,3.78,1.47,5.47,2.19,3.37,1.43,6.75,2.85,10.08,4.37,2.56,1.17,5,2.48,7.55,3.75a2.52,2.52,0,0,0,3-.25c1.11-.9,2.24-1.76,3.38-2.62,2-1.52,4-3.09,6.07-4.5,4-2.7,8.06-5.28,12-8,4.14-2.79,8.21-5.67,12.34-8.47a2.09,2.09,0,0,0,1-1.7c.15-2.06.34-4.12.34-6.19,0-2.69-.12-5.39-.26-8.09C153.84,118.27,153.63,116.92,153.43,115.16Zm97.26,122.89a6.46,6.46,0,0,0-1.19,0c-2.8.64-5.62,1.08-8.45,1.52-4.57.72-23.75,4.84-26.85,6.1a103.92,103.92,0,0,1-11.66,3.47,10.57,10.57,0,0,0-3.07,1,4.89,4.89,0,0,1-2.07.8c-1.75.28-3.33,2.27-1.75,4.21a8,8,0,0,1,11.57,3.54,9.61,9.61,0,0,1,.47,5.75c-.07.52-.29,1,.43,1.42a16.26,16.26,0,0,0,1.85-1.42,19.1,19.1,0,0,1,6.41-4.25c3.86-1.58,7.47-1.49,10.88,1.07a14.69,14.69,0,0,1,4,5.67c.44,0,.73.05,1,.05a49.3,49.3,0,0,1,11.31.74,4.21,4.21,0,0,0,4.33-1.45,16.88,16.88,0,0,0,3.86-7.6,55.72,55.72,0,0,0,.45-15.26C252.07,242.33,250.69,239.19,250.69,238.05ZM222,150.26a9.87,9.87,0,0,0-1.14-1.62c-.88-.79-1.9-1.44-2.77-2.26-3.25-3.06-6.52-6.11-9.68-9.26-3.66-3.64-7.47-7.12-11.36-10.5-2.43-2.11-4.92-4.13-7.38-6.2-2.92-2.46-5.48-5.34-8.68-7.49-2.36-1.58-4.58-3.39-7.32-4.53a15.45,15.45,0,0,0,0,1.81c.31,2.38.68,4.76,1,7.14.34,2.61.62,5.23,1,7.85.18,1.47.42,2.94.66,4.42.6,3.73,1.19,7.47,1.84,11.2.41,2.37.94,4.71,1.39,7.07.26,1.37.39,1.55,1.74,1.65,2,.15,4,.24,6,.36,3.43.19,6.84.73,10.29.4.78-.08,1.58.13,2.37.12,3.33,0,6.65-.13,10-.16C213.83,150.24,217.73,150.26,222,150.26ZM233,158.9a20.23,20.23,0,0,0-3.54,1.49c-1.84,1.2-4,1.62-5.87,2.69a6.06,6.06,0,0,1-1.12.44c-3.33,1.19-6.68,2.35-10,3.55-1.89.68-3.74,1.44-5.62,2.14-3.48,1.28-7,2.54-10.45,3.81-2.26.83-4.5,1.74-6.79,2.46-4,1.26-8,2.4-12,3.61-4.83,1.46-9.61,3.07-14.47,4.4-3.59,1-7.28,1.59-10.9,2.44A72.91,72.91,0,0,1,142.5,188a3.63,3.63,0,0,0-1.12.55c5,.33,10,.21,14.91.36s10.06.58,15.16.89c.91-1.27,2.34-2.9,2.55-3.13a13.85,13.85,0,0,1,9-4.34c4.51-.4,8.41,1,11.06,4.95a3.74,3.74,0,0,0,3.87,1.66c1.49-.17,3-.24,4.46-.42a10.8,10.8,0,0,0,2.85-.52,48.19,48.19,0,0,0,9.65-5.3c1.83-1.28,3.64-2.57,5.5-3.8a93.66,93.66,0,0,0,8.85-6.26c2-1.7,4.25-3.12,6.36-4.71a13.44,13.44,0,0,0,2.12-1.93,1.59,1.59,0,0,0,.25-1.91c-.38-.65-.72-1.31-1.1-2C236,160.64,234.47,159.85,233,158.9Zm.33,45.47c-1.14.11-2.24.14-3.3.33-4.34.81-8.65,1.73-13,2.48-5.1.89-10,2.65-14.93,4A2.73,2.73,0,0,0,199.9,214a8.5,8.5,0,0,1-1.54,4.86,2.78,2.78,0,0,0-.22,3c.68,1.7,1.29,3.43,1.91,5.16.76,2.09.09,3.22-2.16,3.67-2,.41-2.55,1.44-1.83,3.32a9.41,9.41,0,0,1,.71,2.28c.2,1.87.35,3.77.38,5.65a17.76,17.76,0,0,1-.42,2.68c-.12.86-.6,1.71-.15,2.6,2.58-.65,5.07-1.32,7.58-1.89a1.7,1.7,0,0,0,1.26-1.23,16.46,16.46,0,0,1,2.52-4.44c2.18-2.57,4.29-5.21,6.26-7.95,2.53-3.54,5.12-7,7.94-10.35,2.26-2.67,4.27-5.55,6.42-8.31,1.82-2.35,3.68-4.66,5.45-6.9ZM32,29.69c.88.59,1.73,1.23,2.64,1.75,2.45,1.38,5,2.62,7.37,4.05A106.37,106.37,0,0,0,54,41.82C58.1,43.63,62,45.89,66.06,48c2.7,1.39,5.37,2.84,8.09,4.2,2.5,1.26,5,2.45,7.6,3.62,1.74.79,3.52,1.5,5.52,2.36A5.52,5.52,0,0,0,86.84,57c-.59-.83-1.2-1.66-1.86-2.45C82.35,51.4,79.77,48.2,77,45.12c-4-4.5-8.05-8.92-12.13-13.33-1.2-1.3-2.7-2.34-3.79-3.72A61.82,61.82,0,0,0,54,20.9c-1.56-1.42-3.15-2.81-4.76-4.25C39.59,19.72,36.38,23.91,32,29.69Zm7.06,150.62a19.27,19.27,0,0,0,4.4,7.52c1.37,1.39,2.77,2.75,4.17,4.1a30.12,30.12,0,0,0,8.73,5.72c2.55,1.15,5.31,1.41,8,1.93a2.25,2.25,0,0,0,1.44-.37c1.57-1,3.13-1.92,4.63-3,3.1-2.17,6.16-4.39,9.25-6.59.93-.66,1.89-1.28,2.83-1.94q2.32-1.61,4.64-3.25c.34-.23.64-.53,1.07-.89-.77-.26-1.3-.47-1.84-.62l-12.06-3.39c-2.92-.82-5.85-1.62-8.78-2.42-4.85-1.31-9.91-1.7-14.73-3.19a2.21,2.21,0,0,0-1.32.07,9.1,9.1,0,0,0-1.84.87q-3.91,2.33-7.79,4.72A6.89,6.89,0,0,0,39.08,180.31Zm198.09,28.55a21.35,21.35,0,0,0-1.72,1.54c-1.91,2.27-3.81,4.54-5.68,6.85s-3.6,4.59-5.42,6.88c-1.67,2.1-3.37,4.18-5,6.3-2,2.52-3.91,5.07-5.85,7.62a7.76,7.76,0,0,0-.82,1.31c-.59,1.12-1.15,2.27-1.76,3.48.38-.07.71-.11,1-.2,1.1-.31,2.19-.64,3.3-.94,2.32-.61,4.66-1.19,7-1.83,1.76-.48,3.49-1.07,5.24-1.57a57,57,0,0,1,10.6-2.11c2.79-.25,5.54-.9,8.3-1.37l4.61-.76c.06-.53.12-1,.15-1.42a32.36,32.36,0,0,0-1.39-9.31,10,10,0,0,0-3-4.69c-.24-.24-.53-.45-.75-.7-2.18-2.43-4.32-4.89-6.54-7.28A17.82,17.82,0,0,0,237.17,208.86Zm-36.89-1.27a8.51,8.51,0,0,0,4.07-.7c1.58-.51,3.11-1.23,4.72-1.58,5.2-1.13,10.42-2.2,15.65-3.17,5.52-1,11-2,16.43-3.6a1.88,1.88,0,0,0,1.15-.84,8.84,8.84,0,0,0,.47-6.81c-.34-.88-.76-1.34-1.72-1.33-1.65,0-3.3,0-5,0-2.58,0-5.17,0-7.74.08-2.92.15-5.83.48-8.74.73-2.34.21-4.68.4-7,.64s-4.65.52-7,.79l-7.1.8c-.78,1.11,0,2.07.2,3.07A54.1,54.1,0,0,1,200.28,207.59ZM173.36,363.08c-1.41.63-2.52,1.19-3.69,1.64-3.59,1.39-7.2,2.73-10.8,4.11a11.85,11.85,0,0,0-1.37.71,1.32,1.32,0,0,0-.62,1.73,7.08,7.08,0,0,0,.77,1.53c.52.82,1.13,1.6,1.61,2.44,1.45,2.51,2.82,5.07,4.29,7.57,1.29,2.21,2.73,4.33,4,6.56,1.58,2.77,3.08,5.6,4.57,8.44.41.77,1,1.46,1.39,2.23.61,1.1,1.38,2.51,3.13,2.46,1.49,0,3,.1,4.47.05s1.53-.25,1.24-1.68c-1.07-5.28-2-10.58-3.27-15.82-1.61-6.86-3.43-13.68-5.18-20.51A14,14,0,0,0,173.36,363.08ZM33.79,116.7a19.66,19.66,0,0,0-.47-3.66,39.55,39.55,0,0,0-2.25-5.57,12.79,12.79,0,0,0-3.48-4.21A12.47,12.47,0,0,0,18,100.75a2,2,0,0,0-1.6.83,18.26,18.26,0,0,0-3.17,7.35,45,45,0,0,0-.39,5.82c-.12,2.85,1.19,5.19,2.81,7.37a8.08,8.08,0,0,0,2,2.08A16.63,16.63,0,0,0,26,126.71a7.16,7.16,0,0,0,7.26-5.82C33.47,119.43,33.63,117.94,33.79,116.7ZM170.11,227.12a8.31,8.31,0,0,0-1,.39c-1.25.71-2.48,1.44-3.71,2.17-3,1.76-5.86,3.59-8.86,5.27s-5.85,4-9.13,5.41a51.49,51.49,0,0,0-5.17,3c1.78,1,3.23,2,4.79,2.79s3.4,1.32,5.09,2c4.62,1.89,9.22,3.83,13.84,5.72a13,13,0,0,0,1.78.5l-.49-.68,2.67-1.83a13.64,13.64,0,0,0-.42-2.72,13.21,13.21,0,0,1,.22-9.43c.59-1.53.66-3.21,1.53-4.67.24-.39,0-1.09-.07-1.64-.26-1.57-.57-3.14-.84-4.71C170.21,228.23,170.18,227.73,170.11,227.12Zm-52-34.13-.13-.35c-1.71-.42-3.42-.87-5.14-1.25A81,81,0,0,1,101.48,188c-2.62-1-5.32-1.82-8-2.66a2.28,2.28,0,0,0-1.59.12c-1.41.78-2.76,1.65-4.08,2.55q-5.48,3.73-10.91,7.53c-.88.61-1.67,1.36-2.51,2,.83,1.31,2.13,1.54,3.31,1.92,4.41,1.4,9,1.37,13.5,1.12,2.74-.16,5.45-.72,8.18-1A42.88,42.88,0,0,0,114.94,195C116,194.36,117.07,193.64,118.13,193ZM99.72,387.69a9.74,9.74,0,0,0,1.11,1.4c.93.85,1.92,1.63,2.92,2.41s1.8,1.41,2.75,2.05c3.08,2.09,6.16,4.16,9.27,6.2a4.36,4.36,0,0,0,1.87.77c2,.21,4.11.3,6.17.38,3.1.14,6.19.31,9.29.31,1.62,0,3.28.62,5.12-.28a15.32,15.32,0,0,0-1.2-1.42c-.32-.31-.81-.46-1.1-.79a75.22,75.22,0,0,0-8.19-7.26c-1.58-1.31-3.32-2.42-4.93-3.7-.69-.56-4.59-3.76-5.4-3.92s-1.56-.43-2.35-.55c-2.32-.34-4.63-.74-6.94.16-1.65.64-3.34,1.17-5,1.69A6.09,6.09,0,0,0,99.72,387.69Zm49.74-108.88.11-.22c-.59-.43-1.19-.84-1.77-1.28-3.2-2.44-6.38-4.9-9.58-7.33-1.74-1.32-3.45-2.68-5.29-3.84-2.38-1.51-4.87-2.82-7.3-4.26-1.87-1.1-3.7-2.26-5.54-3.39-1.29.82-2.5,1.57-3.7,2.34s-2.49,1.63-3.73,2.46-2.36,1.62-3.55,2.42a30.58,30.58,0,0,0-3.67,2.53c-1,.93-2.65,1.05-3.41,2.56.75.14,1.37.3,2,.35,3.71.25,7.42.51,11.14.69a72.78,72.78,0,0,1,13.78,2.05l15.38,3.72C146,278,147.74,278.41,149.46,278.81ZM168.07,80.09a17.94,17.94,0,0,1,3,.69c2.19,1,4.35,2.07,6.47,3.21,2.37,1.27,4.67,2.69,7,4,3.38,1.82,6.9,3.41,10.17,5.42a85.89,85.89,0,0,0,12.16,6,4.32,4.32,0,0,0,.83.06c-1.17-1.45-2.1-2.73-3.16-3.9-2.73-3-5.45-6-8.29-8.95a79.26,79.26,0,0,0-7.25-6.83,43.1,43.1,0,0,0-7.15-4.39,39.57,39.57,0,0,0-14.59-4.26,7.91,7.91,0,0,0-1.9.32C166.37,74.55,167.24,77.38,168.07,80.09ZM138.55,22.58l.11-.39c-.6-.48-1.17-1-1.8-1.42a61.27,61.27,0,0,0-5.17-3.32c-2-1.05-4.07-1.82-6.09-2.75-4.73-2.17-9.23-4.8-14.16-6.53a38.17,38.17,0,0,0-10.07-2c-.84-.07-1.72.31-2.53.17a13.39,13.39,0,0,0-5.39.56c-.92.22-1.81.55-3,.91A14.28,14.28,0,0,0,92.34,9.5c2.85,1.79,5.68,3.64,8.64,5.22a70.15,70.15,0,0,0,6.8,2.85,56.88,56.88,0,0,0,9.6,2.65A80.89,80.89,0,0,0,128.2,22c2.16.16,4.32.42,6.48.55C136,22.66,137.26,22.59,138.55,22.58ZM150.31,156a10.76,10.76,0,0,0-1.51-.58,53.5,53.5,0,0,0-6.21-1.29,17.12,17.12,0,0,1-6.06-1.78,2.2,2.2,0,0,0-2.53.16c-2.68,1.87-5.45,3.6-8.11,5.48-1.47,1-2.81,2.27-4.44,3.6,8.42,4.16,16.92,7.37,25.32,10.78C147.42,171.31,150.13,158.76,150.31,156Zm24.81,37.55a39.94,39.94,0,0,0-1.44,11.58c.11,1.48.45,3,.48,4.43a10.18,10.18,0,0,0,1.08,4.27,3.18,3.18,0,0,0,1.46,1.56,16.27,16.27,0,0,1,3.77,2.3c2.23,1.49,4.51,2.91,6.82,4.29s4.68,2.67,7,4a10.06,10.06,0,0,0,1.52.56c-2.87-7.93-5.68-15.49-10.67-22A65.32,65.32,0,0,0,175.12,193.58Zm15.45,57.61-.43-.06c-1.07,1.26-2.18,2.49-3.2,3.79a34.21,34.21,0,0,1-5.71,5.7,44.77,44.77,0,0,0-7,7.09c-.64.81-2.23,6.8-2.23,7.73a20.7,20.7,0,0,0,1.66,7.34,3.71,3.71,0,0,0,.93,1.23c.84.81,1.67.64,2.2-.4.33-.67.58-1.38.95-2,1.2-2.07,2.4-4.15,3.67-6.18,1.09-1.75,2.32-3.42,3.42-5.16,1.65-2.62,3.37-5.21,4.81-7.94,1-1.91,2.38-3.78,1.69-6.26A41.29,41.29,0,0,1,190.57,251.19ZM231,270.72c-.62,1.46-1.16,2.83-1.77,4.17-.83,1.83-1.7,3.63-2.55,5.44a1.37,1.37,0,0,0,.46,2c1.67,1.1,3.29,2.27,5,3.27,1.48.86,3.08,1.52,4.62,2.27,1.21.58,1.58.55,2.35-.51.94-1.29,1.76-2.67,2.68-4a25.85,25.85,0,0,0,4-10.53,6,6,0,0,0-.07-1.41C240.62,271,235.75,269.9,231,270.72Zm-57.65-19.57a4,4,0,0,0,.74-.05c2.63-.81,5.25-1.65,7.89-2.44a64.07,64.07,0,0,0,8.78-3.47c2.44-1.14,3-2.68,2.6-5a50.31,50.31,0,0,0-1.24-5,1,1,0,0,0-1.53-.61c-2,1.18-4.23,1.37-6.36,2a30.32,30.32,0,0,1-8.68,1.15,2.15,2.15,0,0,0-2.24,1.47C171.52,243.2,172,247.13,173.34,251.15Zm10,27.73-5.1,8.47c.72.51,1.33,1,2,1.43,1,.63,2.1,1.18,3.14,1.8a25.71,25.71,0,0,0,8.14,3.18c3.89.77,7.72.8,11.38-1a3.5,3.5,0,0,1,1-.36c1.71-.29,3-1.35,4.48-2.41-1.93-1.55-4.26-1.61-6.28-2.45s-4.15-1.67-6.21-2.55-4.22-1.8-6.28-2.8S185.63,280.09,183.35,278.88ZM145.21,383.44a11.66,11.66,0,0,0,1.08,2.15c1.18,1.45,2.45,2.84,3.73,4.2,3.53,3.72,7,7.46,10.65,11.1a5.42,5.42,0,0,0,3.71,2c1.77,0,3.54.15,5.18.23.82-.78.54-1.51.08-2.23s-.88-1.34-1.27-2c-2.2-3.95-4.36-7.92-6.59-11.85a4.22,4.22,0,0,0-3-2.38,5.17,5.17,0,0,1-1.08-.48,14.39,14.39,0,0,0-3.33-1.26C151.37,382.53,148.29,381.76,145.21,383.44Zm-30.5-154.21-.15-.22c-2.48.33-5,.73-7.43,1-4.22.44-8.45.73-12.67,1.19-2.38.25-4.75.68-7.12,1.08a2,2,0,0,0-1.2.56c-1,1.37-2,2.8-2.91,4.22-1.93,2.86-2.78,6.13-3.58,9.42a9.13,9.13,0,0,0-.08,1.55Zm11.35,155.18a4.62,4.62,0,0,0,.6,1.44,21,21,0,0,0,2.61,2.2c1.57,1.11,3.24,2.07,4.78,3.22,1.82,1.35,3.61,2.75,5.29,4.27a64.08,64.08,0,0,1,5.09,5.07,4.49,4.49,0,0,0,3.57,1.55c1.82,0,3.65.11,5.47.13.92,0,1.84-.07,2.91-.11-.18-.59-.19-1-.39-1.22-1-1.1-2-2.19-3-3.21A144.53,144.53,0,0,1,141.87,386a1.35,1.35,0,0,0-.81-.45,22.45,22.45,0,0,1-3-.67c-2.2-.55-4.36-1.43-6.72-1.05-.15,0-.33-.11-.5-.11A11,11,0,0,0,126.06,384.41Zm48.32-31.32a11.92,11.92,0,0,0-.47-1.5c-1-2.18-2-4.4-3.13-6.52a58.85,58.85,0,0,0-5.93-9.67,32.86,32.86,0,0,1-3-4.43,2.22,2.22,0,0,0-2.27-1.43c-.8.06-1.6,0-2.4.08a1.38,1.38,0,0,0-.94.34c-.94,1.14-2.06,2.14-2.52,3.65a20.59,20.59,0,0,0-.87,5.41,3.26,3.26,0,0,0,2.17,3.49,53,53,0,0,1,4.8,2.32C164.62,347.49,169.34,350.22,174.38,353.09ZM69.25,115.94a12.54,12.54,0,0,0,2.92-4.61,5.84,5.84,0,0,0,.25-3.54c-.89-3.75-3.46-6-6.73-7.54a1.66,1.66,0,0,0-1.18,0,5.56,5.56,0,0,0-3,1.91c-1.61,2.52-2.88,5.06-2.87,8.24,0,3.35,3.86,6.65,7.12,5.92A29.27,29.27,0,0,1,69.25,115.94ZM215.6,187.06a3.88,3.88,0,0,0,.82.15c1.82-.21,3.65-.36,5.44-.7,2.79-.52,5.78.18,8.4-1.36a1.4,1.4,0,0,1,.51-.07c2.14-.23,4.28-.47,6.43-.69.73-.07,1.41-.27,1.6-1,1-3.89,1.44-7.78-.26-11.62a3,3,0,0,0-.57-.64,39.35,39.35,0,0,0-5.61,3.93,70.37,70.37,0,0,1-6,4.25c-1.08.73-2.23,1.35-3.29,2.09-1.6,1.12-3.16,2.3-4.72,3.48C217.48,185.51,216.63,186.22,215.6,187.06Zm-39.27,32.42c.91,1.64.71,2.76-.77,4.11-.42.39-.83.79-1.22,1.21a1.14,1.14,0,0,0-.31.54,14.89,14.89,0,0,0,.91,8.24,1.29,1.29,0,0,0,1.3.9,8.74,8.74,0,0,0,1.54-.07c3.19-.65,6.41-1.22,9.57-2a16.33,16.33,0,0,0,6-2.91C187.35,226.44,182.34,222.1,176.33,219.48Zm-2.72,138.44c-.17-.24-.23-.44-.37-.52-4.05-2.48-8.09-5-12.17-7.41-.67-.4-1.31-1.39-2.25-.7a8.06,8.06,0,0,0-1.69,1.89,4.84,4.84,0,0,0-.68,1.56,24.54,24.54,0,0,0-.71,8.36,9,9,0,0,0,.65,2.65c.43,1.08.77,1.21,1.85.86s2-.74,3.07-1.12l5.3-2a14.34,14.34,0,0,0,1.77-.66C170.13,359.89,171.85,358.9,173.61,357.92ZM184,197.35a70.25,70.25,0,0,1,11.49,17.87c1.91-3.85,1-18.25-1.8-22.11-1.55.65-3.12,1.3-4.67,2S185.87,196.52,184,197.35Zm-10.3,145c2.1-2.66,5.69-11.73,5.56-14.13a6.56,6.56,0,0,0-1,0,51.42,51.42,0,0,1-10.07.75,7.7,7.7,0,0,0-1.36.06,14,14,0,0,0-1.35.36Zm41.56-76.89c1.29,3.83,6,9.09,9.28,10.21.49-1.1,1-2.22,1.5-3.36a7,7,0,0,0-.94-7.12C222.67,261.79,218,262.25,215.29,265.49Zm-24.06-75.8c-.31-.39-.51-.65-.73-.9a7,7,0,0,0-9-1.77,39,39,0,0,0-3.34,2,1.21,1.21,0,0,0-.32,2c.67.78,1.51,1.4,2.2,2.15a1.91,1.91,0,0,0,2.36.41C185.31,192.35,188.2,191,191.23,189.69Zm-19,74.78c.38-.16.52-.18.58-.25,2.46-3,5.48-5.34,8.31-7.93a64.55,64.55,0,0,0,4.51-5.09,5.14,5.14,0,0,0-1,0c-3,.94-6,1.88-9,2.88a2.33,2.33,0,0,0-1.11,1A19.54,19.54,0,0,0,172.2,264.47ZM109,400.17l.21-.3a31,31,0,0,0-5.24-3.68c-1.85-1.24-3.59-2.64-5.46-4a8.25,8.25,0,0,0-.55,5.57,2,2,0,0,0,2.38,1.8c.34,0,.68.08,1,.11Zm93-132.65c1.4-1.74,2.22-5.29,1.63-7a4.82,4.82,0,0,0-2.44-2.78,2.32,2.32,0,0,0-2.58.15c-.61.49-1.19,1-1.72,1.47C197.79,262.5,199.84,264.93,202,267.52ZM188,399.83c1.59-4.51,1-8.51-2.38-12a4.56,4.56,0,0,1-.55.08c-1.42,0-1.64.14-1.38,1.52.21,1.07,1.32,5.6,2.52,9.29.07.17,0,.42,0,.47Zm34.41-120.19c-1.31-.82-2.44-1.58-3.61-2.26s-1.71-2.09-3.42-2.33c.23.65,1.1,5.79,1.46,7.35.28,1.19.62,2.36,1,3.83A26.82,26.82,0,0,0,222.45,279.64Zm-25.84-12.3c-1.05-1.65-1.89-3-2.85-4.46a13.68,13.68,0,0,0-2.56,4.46ZM212.45,281c-.37-1.24-1.95-8.14-2.37-9.36-.35-1-.91-1.17-1.83-.59-.46.29-2.76,2.22-4.53,3.66l-.6.35c-1.23,1.18-2.26,2.31-3.45,3.27s-2.27.63-3.5-.78l4.19-6c-.83-.77-1.27-1.49-2.47-.95a8.45,8.45,0,0,1-2.7.31,27.22,27.22,0,0,1-3.24.2,24.59,24.59,0,0,1-3.08-.49c-1.17,1.66-2.75,3-3.3,5.06,9,5.37,18.65,8.32,28.43,11.57-.31-1.24-.55-2.18-.77-3.11s-.42-1.91-.68-2.85Z"/><path class="cls-5" d="M222,150.26c-.85,0-9.15.17-12.09,0,2.08-14.34-32.35-33.84-36.24-41.86,2.74,1.14,5,2.95,7.32,4.53,3.2,2.15,5.76,5,8.68,7.49,2.46,2.07,5,4.09,7.38,6.2,3.89,3.38,7.7,6.86,11.36,10.5,3.16,3.15,6.43,6.2,9.68,9.26.87.82,1.89,1.47,2.77,2.26A9.87,9.87,0,0,1,222,150.26Z"/><path class="cls-5" d="M167.72,129.33c-1.74,7.67-3.2,22-3.07,27.29,2.56-2.75,5.27-3.31,6.51-2.29C169.48,143.75,168.32,137.76,167.72,129.33Z"/><path class="cls-5" d="M215.6,187.06c1-.84,1.88-1.55,2.76-2.22,1.56-1.18,3.12-2.36,4.72-3.48,1.06-.74,2.21-1.36,3.29-2.09a70.37,70.37,0,0,0,6-4.25,28.88,28.88,0,0,1,5.61-3.93c-11.61,8.69-13.32,14.9-16.11,15.42-1.79.34-3.62.49-5.44.7A3.88,3.88,0,0,1,215.6,187.06Z"/><path class="cls-5" d="M233.3,204.37c-7.78.81-27.38,8.61-33.5,10.85,0-2.88.88-3.65,2.28-4,5-1.35,9.83-3.11,14.93-4,4.34-.75,8.65-1.67,13-2.48C231.06,204.51,232.16,204.48,233.3,204.37Z"/><path class="cls-5" d="M237.17,208.86c-4.46,5.11-15.57,21.6-18.82,26.95-2.17,3.57,16.45-1.2,20.75.27A109.4,109.4,0,0,0,221.79,240c-2.95.74-5,1.3-5.24,1.37-1.58.49-5.58,1.47-5.65,1.48.61-1.21,1.17-2.36,1.76-3.48a7.76,7.76,0,0,1,.82-1.31c1.94-2.55,3.88-5.1,5.85-7.62,1.65-2.12,3.35-4.2,5-6.3,1.82-2.29,3.59-4.61,5.42-6.88s3.77-4.58,5.68-6.85A21.35,21.35,0,0,1,237.17,208.86Z"/><path class="cls-5" d="M177.9,297.18c5.16,3.23,10.33,6.45,15.41,9.8,3.89,2.57,7.68,5.3,11.51,7.95.32.22,2.28,1.51,4.34,2.7C206.57,319.66,182.71,303.19,177.9,297.18Z"/><path class="cls-5" d="M231,270.72c4.76-.82,9.63.26,14.73.68-8.81-.66-10.83,1.8-13.67,3.38-2.58,1.55-3.69,8.33,5.94,13.42-.88,0-4.36-1.78-5.84-2.64-1.73-1-3.35-2.17-5-3.27a1.37,1.37,0,0,1-.46-2c.85-1.81,1.72-3.61,2.55-5.44C229.83,273.55,230.37,272.18,231,270.72Z"/><path class="cls-3" d="M215.29,265.49c6.25,5.25,11.86,4.3,10.78,6.85-.48,1.14-1,2.26-1.5,3.36C221.29,274.58,216.58,269.32,215.29,265.49Z"/></g></g></svg>